ISO-10303-21;
HEADER;
/* Generated by software containing ST-Developer
 * from STEP Tools, Inc. (www.steptools.com) 
 */

FILE_DESCRIPTION(
/* description */ (''),
/* implementation_level */ '2;1');

FILE_NAME(
/* name */ '',
/* time_stamp */ '2026-06-08T11:26:37+02:00',
/* author */ (''),
/* organization */ (''),
/* preprocessor_version */ 'ST-DEVELOPER v20.1',
/* originating_system */ 'Autodesk Translation Framework v15.8.0.0',
/* authorisation */ '');

FILE_SCHEMA (('AUTOMOTIVE_DESIGN { 1 0 10303 214 3 1 1 }'));
ENDSEC;

DATA;
#10=MECHANICAL_DESIGN_GEOMETRIC_PRESENTATION_REPRESENTATION('',(#13),#768);
#11=SHAPE_REPRESENTATION_RELATIONSHIP('SRR','None',#775,#12);
#12=ADVANCED_BREP_SHAPE_REPRESENTATION('',(#14),#767);
#13=STYLED_ITEM('',(#784),#14);
#14=MANIFOLD_SOLID_BREP('Body1',#440);
#15=FACE_BOUND('',#73,.T.);
#16=FACE_BOUND('',#76,.T.);
#17=FACE_BOUND('',#79,.T.);
#18=FACE_BOUND('',#83,.T.);
#19=PLANE('',#461);
#20=PLANE('',#468);
#21=PLANE('',#473);
#22=PLANE('',#478);
#23=PLANE('',#481);
#24=PLANE('',#482);
#25=PLANE('',#483);
#26=PLANE('',#486);
#27=PLANE('',#487);
#28=PLANE('',#488);
#29=PLANE('',#489);
#30=PLANE('',#490);
#31=PLANE('',#491);
#32=PLANE('',#492);
#33=PLANE('',#493);
#34=ELLIPSE('',#457,24.1650011477759,17.5);
#35=ELLIPSE('',#458,24.1650011477759,17.5);
#36=ELLIPSE('',#459,24.1650011477759,17.5);
#37=ELLIPSE('',#460,24.1650011477759,17.5);
#38=ELLIPSE('',#462,22.4927996217088,15.);
#39=ELLIPSE('',#465,22.4927996217088,15.);
#40=ELLIPSE('',#466,22.4927996217088,15.);
#41=ELLIPSE('',#467,22.4927996217088,15.);
#42=ELLIPSE('',#484,22.5,15.);
#43=ELLIPSE('',#485,22.5,15.);
#44=(
BOUNDED_SURFACE()
B_SPLINE_SURFACE(1,2,((#627,#628,#629,#630,#631),(#632,#633,#634,#635,#636)),
 .UNSPECIFIED.,.F.,.F.,.F.)
B_SPLINE_SURFACE_WITH_KNOTS((2,2),(3,2,3),(0.,4.00082745325664),(0.0955740112635478,
1.54496547859184,2.99435694592012),.UNSPECIFIED.)
GEOMETRIC_REPRESENTATION_ITEM()
RATIONAL_B_SPLINE_SURFACE(((1.,0.748701157107077,1.,0.748701157107077,1.),
(1.,0.748701157107077,1.,0.748701157107077,1.)))
REPRESENTATION_ITEM('')
SURFACE()
);
#45=(
BOUNDED_SURFACE()
B_SPLINE_SURFACE(1,2,((#666,#667,#668,#669,#670),(#671,#672,#673,#674,#675)),
 .UNSPECIFIED.,.F.,.F.,.F.)
B_SPLINE_SURFACE_WITH_KNOTS((2,2),(3,2,3),(0.,4.2982644057652),(0.111564629256863,
1.47851688018965,2.84546913112243),.UNSPECIFIED.)
GEOMETRIC_REPRESENTATION_ITEM()
RATIONAL_B_SPLINE_SURFACE(((1.,0.775382261833845,1.,0.775382261833845,1.),
(1.,0.775382261833845,1.,0.775382261833845,1.)))
REPRESENTATION_ITEM('')
SURFACE()
);
#46=(
BOUNDED_SURFACE()
B_SPLINE_SURFACE(1,2,((#731,#732,#733),(#734,#735,#736)),.UNSPECIFIED.,
 .F.,.F.,.F.)
B_SPLINE_SURFACE_WITH_KNOTS((2,2),(3,3),(0.,4.14844444444445),(-3.14159265358979,
-3.03002802965406),.UNSPECIFIED.)
GEOMETRIC_REPRESENTATION_ITEM()
RATIONAL_B_SPLINE_SURFACE(((1.,0.998444570230056,1.),(1.,0.998444570230056,
1.)))
REPRESENTATION_ITEM('')
SURFACE()
);
#47=FACE_OUTER_BOUND('',#70,.T.);
#48=FACE_OUTER_BOUND('',#71,.T.);
#49=FACE_OUTER_BOUND('',#72,.T.);
#50=FACE_OUTER_BOUND('',#74,.T.);
#51=FACE_OUTER_BOUND('',#75,.T.);
#52=FACE_OUTER_BOUND('',#77,.T.);
#53=FACE_OUTER_BOUND('',#78,.T.);
#54=FACE_OUTER_BOUND('',#80,.T.);
#55=FACE_OUTER_BOUND('',#81,.T.);
#56=FACE_OUTER_BOUND('',#82,.T.);
#57=FACE_OUTER_BOUND('',#84,.T.);
#58=FACE_OUTER_BOUND('',#85,.T.);
#59=FACE_OUTER_BOUND('',#86,.T.);
#60=FACE_OUTER_BOUND('',#87,.T.);
#61=FACE_OUTER_BOUND('',#88,.T.);
#62=FACE_OUTER_BOUND('',#89,.T.);
#63=FACE_OUTER_BOUND('',#90,.T.);
#64=FACE_OUTER_BOUND('',#91,.T.);
#65=FACE_OUTER_BOUND('',#92,.T.);
#66=FACE_OUTER_BOUND('',#93,.T.);
#67=FACE_OUTER_BOUND('',#94,.T.);
#68=FACE_OUTER_BOUND('',#95,.T.);
#69=FACE_OUTER_BOUND('',#96,.T.);
#70=EDGE_LOOP('',(#290,#291,#292,#293));
#71=EDGE_LOOP('',(#294,#295,#296,#297,#298,#299,#300,#301));
#72=EDGE_LOOP('',(#302,#303,#304,#305,#306,#307,#308,#309));
#73=EDGE_LOOP('',(#310));
#74=EDGE_LOOP('',(#311,#312,#313,#314,#315,#316,#317,#318,#319,#320));
#75=EDGE_LOOP('',(#321,#322,#323,#324,#325,#326,#327,#328));
#76=EDGE_LOOP('',(#329));
#77=EDGE_LOOP('',(#330,#331,#332,#333));
#78=EDGE_LOOP('',(#334,#335,#336,#337));
#79=EDGE_LOOP('',(#338));
#80=EDGE_LOOP('',(#339,#340,#341,#342));
#81=EDGE_LOOP('',(#343,#344,#345,#346));
#82=EDGE_LOOP('',(#347,#348,#349,#350));
#83=EDGE_LOOP('',(#351));
#84=EDGE_LOOP('',(#352,#353,#354,#355));
#85=EDGE_LOOP('',(#356,#357,#358,#359));
#86=EDGE_LOOP('',(#360,#361,#362,#363));
#87=EDGE_LOOP('',(#364,#365,#366,#367));
#88=EDGE_LOOP('',(#368,#369,#370,#371));
#89=EDGE_LOOP('',(#372,#373,#374,#375));
#90=EDGE_LOOP('',(#376,#377,#378,#379,#380,#381));
#91=EDGE_LOOP('',(#382,#383,#384,#385,#386,#387));
#92=EDGE_LOOP('',(#388,#389,#390,#391,#392,#393,#394,#395));
#93=EDGE_LOOP('',(#396,#397,#398,#399));
#94=EDGE_LOOP('',(#400,#401,#402,#403));
#95=EDGE_LOOP('',(#404,#405,#406,#407));
#96=EDGE_LOOP('',(#408,#409,#410,#411));
#97=CIRCLE('',#455,3.202);
#98=CIRCLE('',#456,3.202);
#99=CIRCLE('',#463,2.70211150548757);
#100=CIRCLE('',#464,0.999999999999996);
#101=CIRCLE('',#469,2.70211150548757);
#102=CIRCLE('',#470,0.999999999999996);
#103=CIRCLE('',#472,2.70211150548757);
#104=CIRCLE('',#474,0.999999999999996);
#105=CIRCLE('',#477,0.999999999999996);
#106=CIRCLE('',#479,2.70211150548757);
#107=LINE('',#621,#148);
#108=LINE('',#625,#149);
#109=LINE('',#642,#150);
#110=LINE('',#646,#151);
#111=LINE('',#649,#152);
#112=LINE('',#655,#153);
#113=LINE('',#657,#154);
#114=LINE('',#659,#155);
#115=LINE('',#661,#156);
#116=LINE('',#662,#157);
#117=LINE('',#679,#158);
#118=LINE('',#683,#159);
#119=LINE('',#685,#160);
#120=LINE('',#686,#161);
#121=LINE('',#688,#162);
#122=LINE('',#693,#163);
#123=LINE('',#695,#164);
#124=LINE('',#697,#165);
#125=LINE('',#699,#166);
#126=LINE('',#700,#167);
#127=LINE('',#709,#168);
#128=LINE('',#713,#169);
#129=LINE('',#719,#170);
#130=LINE('',#721,#171);
#131=LINE('',#722,#172);
#132=LINE('',#725,#173);
#133=LINE('',#726,#174);
#134=LINE('',#729,#175);
#135=LINE('',#730,#176);
#136=LINE('',#740,#177);
#137=LINE('',#745,#178);
#138=LINE('',#747,#179);
#139=LINE('',#749,#180);
#140=LINE('',#750,#181);
#141=LINE('',#752,#182);
#142=LINE('',#753,#183);
#143=LINE('',#755,#184);
#144=LINE('',#756,#185);
#145=LINE('',#758,#186);
#146=LINE('',#760,#187);
#147=LINE('',#762,#188);
#148=VECTOR('',#498,10.);
#149=VECTOR('',#501,10.);
#150=VECTOR('',#508,10.);
#151=VECTOR('',#511,10.);
#152=VECTOR('',#514,10.);
#153=VECTOR('',#519,10.);
#154=VECTOR('',#520,10.);
#155=VECTOR('',#521,10.);
#156=VECTOR('',#522,10.);
#157=VECTOR('',#523,10.);
#158=VECTOR('',#530,10.);
#159=VECTOR('',#533,10.);
#160=VECTOR('',#534,10.);
#161=VECTOR('',#535,10.);
#162=VECTOR('',#536,10.);
#163=VECTOR('',#543,10.);
#164=VECTOR('',#544,10.);
#165=VECTOR('',#545,10.);
#166=VECTOR('',#546,10.);
#167=VECTOR('',#547,10.);
#168=VECTOR('',#560,0.999999999999996);
#169=VECTOR('',#565,0.999999999999996);
#170=VECTOR('',#574,10.);
#171=VECTOR('',#575,10.);
#172=VECTOR('',#576,10.);
#173=VECTOR('',#579,10.);
#174=VECTOR('',#580,10.);
#175=VECTOR('',#583,10.);
#176=VECTOR('',#584,10.);
#177=VECTOR('',#587,10.);
#178=VECTOR('',#592,10.);
#179=VECTOR('',#593,10.);
#180=VECTOR('',#594,10.);
#181=VECTOR('',#595,10.);
#182=VECTOR('',#598,10.);
#183=VECTOR('',#599,10.);
#184=VECTOR('',#602,10.);
#185=VECTOR('',#603,10.);
#186=VECTOR('',#606,10.);
#187=VECTOR('',#609,10.);
#188=VECTOR('',#612,10.);
#189=VERTEX_POINT('',#619);
#190=VERTEX_POINT('',#620);
#191=VERTEX_POINT('',#622);
#192=VERTEX_POINT('',#624);
#193=VERTEX_POINT('',#637);
#194=VERTEX_POINT('',#639);
#195=VERTEX_POINT('',#641);
#196=VERTEX_POINT('',#643);
#197=VERTEX_POINT('',#645);
#198=VERTEX_POINT('',#647);
#199=VERTEX_POINT('',#651);
#200=VERTEX_POINT('',#652);
#201=VERTEX_POINT('',#654);
#202=VERTEX_POINT('',#656);
#203=VERTEX_POINT('',#658);
#204=VERTEX_POINT('',#660);
#205=VERTEX_POINT('',#664);
#206=VERTEX_POINT('',#676);
#207=VERTEX_POINT('',#678);
#208=VERTEX_POINT('',#680);
#209=VERTEX_POINT('',#682);
#210=VERTEX_POINT('',#684);
#211=VERTEX_POINT('',#687);
#212=VERTEX_POINT('',#692);
#213=VERTEX_POINT('',#694);
#214=VERTEX_POINT('',#696);
#215=VERTEX_POINT('',#698);
#216=VERTEX_POINT('',#701);
#217=VERTEX_POINT('',#706);
#218=VERTEX_POINT('',#711);
#219=VERTEX_POINT('',#718);
#220=VERTEX_POINT('',#720);
#221=VERTEX_POINT('',#724);
#222=VERTEX_POINT('',#728);
#223=VERTEX_POINT('',#737);
#224=VERTEX_POINT('',#739);
#225=VERTEX_POINT('',#743);
#226=VERTEX_POINT('',#744);
#227=VERTEX_POINT('',#746);
#228=VERTEX_POINT('',#748);
#229=EDGE_CURVE('',#189,#190,#107,.T.);
#230=EDGE_CURVE('',#189,#191,#97,.T.);
#231=EDGE_CURVE('',#192,#191,#108,.T.);
#232=EDGE_CURVE('',#192,#190,#98,.T.);
#233=EDGE_CURVE('',#193,#192,#34,.T.);
#234=EDGE_CURVE('',#191,#194,#35,.T.);
#235=EDGE_CURVE('',#194,#195,#109,.T.);
#236=EDGE_CURVE('',#196,#195,#36,.T.);
#237=EDGE_CURVE('',#197,#196,#110,.T.);
#238=EDGE_CURVE('',#198,#197,#37,.T.);
#239=EDGE_CURVE('',#198,#193,#111,.T.);
#240=EDGE_CURVE('',#199,#200,#38,.T.);
#241=EDGE_CURVE('',#200,#201,#112,.T.);
#242=EDGE_CURVE('',#202,#201,#113,.T.);
#243=EDGE_CURVE('',#203,#202,#114,.T.);
#244=EDGE_CURVE('',#203,#204,#115,.T.);
#245=EDGE_CURVE('',#204,#196,#116,.T.);
#246=EDGE_CURVE('',#195,#199,#99,.T.);
#247=EDGE_CURVE('',#205,#205,#100,.T.);
#248=EDGE_CURVE('',#190,#206,#39,.T.);
#249=EDGE_CURVE('',#206,#207,#117,.T.);
#250=EDGE_CURVE('',#207,#208,#40,.T.);
#251=EDGE_CURVE('',#209,#208,#118,.T.);
#252=EDGE_CURVE('',#209,#210,#119,.T.);
#253=EDGE_CURVE('',#200,#210,#120,.T.);
#254=EDGE_CURVE('',#199,#211,#121,.T.);
#255=EDGE_CURVE('',#211,#189,#41,.T.);
#256=EDGE_CURVE('',#198,#207,#101,.T.);
#257=EDGE_CURVE('',#212,#197,#122,.T.);
#258=EDGE_CURVE('',#212,#213,#123,.T.);
#259=EDGE_CURVE('',#213,#214,#124,.T.);
#260=EDGE_CURVE('',#215,#214,#125,.T.);
#261=EDGE_CURVE('',#208,#215,#126,.T.);
#262=EDGE_CURVE('',#216,#216,#102,.T.);
#263=EDGE_CURVE('',#194,#211,#103,.T.);
#264=EDGE_CURVE('',#217,#217,#104,.T.);
#265=EDGE_CURVE('',#205,#217,#127,.T.);
#266=EDGE_CURVE('',#218,#218,#105,.T.);
#267=EDGE_CURVE('',#218,#216,#128,.T.);
#268=EDGE_CURVE('',#193,#206,#106,.T.);
#269=EDGE_CURVE('',#219,#210,#129,.T.);
#270=EDGE_CURVE('',#209,#220,#130,.T.);
#271=EDGE_CURVE('',#220,#219,#131,.T.);
#272=EDGE_CURVE('',#210,#221,#132,.T.);
#273=EDGE_CURVE('',#201,#221,#133,.T.);
#274=EDGE_CURVE('',#222,#215,#134,.T.);
#275=EDGE_CURVE('',#222,#209,#135,.T.);
#276=EDGE_CURVE('',#220,#223,#42,.T.);
#277=EDGE_CURVE('',#224,#223,#136,.T.);
#278=EDGE_CURVE('',#224,#219,#43,.T.);
#279=EDGE_CURVE('',#225,#226,#137,.T.);
#280=EDGE_CURVE('',#225,#227,#138,.T.);
#281=EDGE_CURVE('',#228,#227,#139,.T.);
#282=EDGE_CURVE('',#226,#228,#140,.T.);
#283=EDGE_CURVE('',#226,#224,#141,.T.);
#284=EDGE_CURVE('',#221,#228,#142,.T.);
#285=EDGE_CURVE('',#223,#225,#143,.T.);
#286=EDGE_CURVE('',#227,#222,#144,.T.);
#287=EDGE_CURVE('',#214,#202,#145,.T.);
#288=EDGE_CURVE('',#213,#203,#146,.T.);
#289=EDGE_CURVE('',#204,#212,#147,.T.);
#290=ORIENTED_EDGE('',*,*,#229,.F.);
#291=ORIENTED_EDGE('',*,*,#230,.T.);
#292=ORIENTED_EDGE('',*,*,#231,.F.);
#293=ORIENTED_EDGE('',*,*,#232,.T.);
#294=ORIENTED_EDGE('',*,*,#233,.T.);
#295=ORIENTED_EDGE('',*,*,#231,.T.);
#296=ORIENTED_EDGE('',*,*,#234,.T.);
#297=ORIENTED_EDGE('',*,*,#235,.T.);
#298=ORIENTED_EDGE('',*,*,#236,.F.);
#299=ORIENTED_EDGE('',*,*,#237,.F.);
#300=ORIENTED_EDGE('',*,*,#238,.F.);
#301=ORIENTED_EDGE('',*,*,#239,.T.);
#302=ORIENTED_EDGE('',*,*,#240,.T.);
#303=ORIENTED_EDGE('',*,*,#241,.T.);
#304=ORIENTED_EDGE('',*,*,#242,.F.);
#305=ORIENTED_EDGE('',*,*,#243,.F.);
#306=ORIENTED_EDGE('',*,*,#244,.T.);
#307=ORIENTED_EDGE('',*,*,#245,.T.);
#308=ORIENTED_EDGE('',*,*,#236,.T.);
#309=ORIENTED_EDGE('',*,*,#246,.T.);
#310=ORIENTED_EDGE('',*,*,#247,.F.);
#311=ORIENTED_EDGE('',*,*,#248,.T.);
#312=ORIENTED_EDGE('',*,*,#249,.T.);
#313=ORIENTED_EDGE('',*,*,#250,.T.);
#314=ORIENTED_EDGE('',*,*,#251,.F.);
#315=ORIENTED_EDGE('',*,*,#252,.T.);
#316=ORIENTED_EDGE('',*,*,#253,.F.);
#317=ORIENTED_EDGE('',*,*,#240,.F.);
#318=ORIENTED_EDGE('',*,*,#254,.T.);
#319=ORIENTED_EDGE('',*,*,#255,.T.);
#320=ORIENTED_EDGE('',*,*,#229,.T.);
#321=ORIENTED_EDGE('',*,*,#256,.F.);
#322=ORIENTED_EDGE('',*,*,#238,.T.);
#323=ORIENTED_EDGE('',*,*,#257,.F.);
#324=ORIENTED_EDGE('',*,*,#258,.T.);
#325=ORIENTED_EDGE('',*,*,#259,.T.);
#326=ORIENTED_EDGE('',*,*,#260,.F.);
#327=ORIENTED_EDGE('',*,*,#261,.F.);
#328=ORIENTED_EDGE('',*,*,#250,.F.);
#329=ORIENTED_EDGE('',*,*,#262,.T.);
#330=ORIENTED_EDGE('',*,*,#254,.F.);
#331=ORIENTED_EDGE('',*,*,#246,.F.);
#332=ORIENTED_EDGE('',*,*,#235,.F.);
#333=ORIENTED_EDGE('',*,*,#263,.T.);
#334=ORIENTED_EDGE('',*,*,#263,.F.);
#335=ORIENTED_EDGE('',*,*,#234,.F.);
#336=ORIENTED_EDGE('',*,*,#230,.F.);
#337=ORIENTED_EDGE('',*,*,#255,.F.);
#338=ORIENTED_EDGE('',*,*,#264,.T.);
#339=ORIENTED_EDGE('',*,*,#247,.T.);
#340=ORIENTED_EDGE('',*,*,#265,.T.);
#341=ORIENTED_EDGE('',*,*,#264,.F.);
#342=ORIENTED_EDGE('',*,*,#265,.F.);
#343=ORIENTED_EDGE('',*,*,#266,.T.);
#344=ORIENTED_EDGE('',*,*,#267,.T.);
#345=ORIENTED_EDGE('',*,*,#262,.F.);
#346=ORIENTED_EDGE('',*,*,#267,.F.);
#347=ORIENTED_EDGE('',*,*,#268,.T.);
#348=ORIENTED_EDGE('',*,*,#248,.F.);
#349=ORIENTED_EDGE('',*,*,#232,.F.);
#350=ORIENTED_EDGE('',*,*,#233,.F.);
#351=ORIENTED_EDGE('',*,*,#266,.F.);
#352=ORIENTED_EDGE('',*,*,#249,.F.);
#353=ORIENTED_EDGE('',*,*,#268,.F.);
#354=ORIENTED_EDGE('',*,*,#239,.F.);
#355=ORIENTED_EDGE('',*,*,#256,.T.);
#356=ORIENTED_EDGE('',*,*,#269,.T.);
#357=ORIENTED_EDGE('',*,*,#252,.F.);
#358=ORIENTED_EDGE('',*,*,#270,.T.);
#359=ORIENTED_EDGE('',*,*,#271,.T.);
#360=ORIENTED_EDGE('',*,*,#253,.T.);
#361=ORIENTED_EDGE('',*,*,#272,.T.);
#362=ORIENTED_EDGE('',*,*,#273,.F.);
#363=ORIENTED_EDGE('',*,*,#241,.F.);
#364=ORIENTED_EDGE('',*,*,#251,.T.);
#365=ORIENTED_EDGE('',*,*,#261,.T.);
#366=ORIENTED_EDGE('',*,*,#274,.F.);
#367=ORIENTED_EDGE('',*,*,#275,.T.);
#368=ORIENTED_EDGE('',*,*,#271,.F.);
#369=ORIENTED_EDGE('',*,*,#276,.T.);
#370=ORIENTED_EDGE('',*,*,#277,.F.);
#371=ORIENTED_EDGE('',*,*,#278,.T.);
#372=ORIENTED_EDGE('',*,*,#279,.F.);
#373=ORIENTED_EDGE('',*,*,#280,.T.);
#374=ORIENTED_EDGE('',*,*,#281,.F.);
#375=ORIENTED_EDGE('',*,*,#282,.F.);
#376=ORIENTED_EDGE('',*,*,#283,.F.);
#377=ORIENTED_EDGE('',*,*,#282,.T.);
#378=ORIENTED_EDGE('',*,*,#284,.F.);
#379=ORIENTED_EDGE('',*,*,#272,.F.);
#380=ORIENTED_EDGE('',*,*,#269,.F.);
#381=ORIENTED_EDGE('',*,*,#278,.F.);
#382=ORIENTED_EDGE('',*,*,#285,.F.);
#383=ORIENTED_EDGE('',*,*,#276,.F.);
#384=ORIENTED_EDGE('',*,*,#270,.F.);
#385=ORIENTED_EDGE('',*,*,#275,.F.);
#386=ORIENTED_EDGE('',*,*,#286,.F.);
#387=ORIENTED_EDGE('',*,*,#280,.F.);
#388=ORIENTED_EDGE('',*,*,#284,.T.);
#389=ORIENTED_EDGE('',*,*,#281,.T.);
#390=ORIENTED_EDGE('',*,*,#286,.T.);
#391=ORIENTED_EDGE('',*,*,#274,.T.);
#392=ORIENTED_EDGE('',*,*,#260,.T.);
#393=ORIENTED_EDGE('',*,*,#287,.T.);
#394=ORIENTED_EDGE('',*,*,#242,.T.);
#395=ORIENTED_EDGE('',*,*,#273,.T.);
#396=ORIENTED_EDGE('',*,*,#288,.T.);
#397=ORIENTED_EDGE('',*,*,#243,.T.);
#398=ORIENTED_EDGE('',*,*,#287,.F.);
#399=ORIENTED_EDGE('',*,*,#259,.F.);
#400=ORIENTED_EDGE('',*,*,#237,.T.);
#401=ORIENTED_EDGE('',*,*,#245,.F.);
#402=ORIENTED_EDGE('',*,*,#289,.T.);
#403=ORIENTED_EDGE('',*,*,#257,.T.);
#404=ORIENTED_EDGE('',*,*,#279,.T.);
#405=ORIENTED_EDGE('',*,*,#283,.T.);
#406=ORIENTED_EDGE('',*,*,#277,.T.);
#407=ORIENTED_EDGE('',*,*,#285,.T.);
#408=ORIENTED_EDGE('',*,*,#289,.F.);
#409=ORIENTED_EDGE('',*,*,#244,.F.);
#410=ORIENTED_EDGE('',*,*,#288,.F.);
#411=ORIENTED_EDGE('',*,*,#258,.F.);
#412=CYLINDRICAL_SURFACE('',#454,3.202);
#413=CYLINDRICAL_SURFACE('',#471,2.70211150548757);
#414=CYLINDRICAL_SURFACE('',#475,0.999999999999996);
#415=CYLINDRICAL_SURFACE('',#476,0.999999999999996);
#416=CYLINDRICAL_SURFACE('',#480,2.70211150548757);
#417=ADVANCED_FACE('',(#47),#412,.F.);
#418=ADVANCED_FACE('',(#48),#44,.F.);
#419=ADVANCED_FACE('',(#49,#15),#19,.T.);
#420=ADVANCED_FACE('',(#50),#45,.T.);
#421=ADVANCED_FACE('',(#51,#16),#20,.T.);
#422=ADVANCED_FACE('',(#52),#413,.T.);
#423=ADVANCED_FACE('',(#53,#17),#21,.T.);
#424=ADVANCED_FACE('',(#54),#414,.F.);
#425=ADVANCED_FACE('',(#55),#415,.F.);
#426=ADVANCED_FACE('',(#56,#18),#22,.T.);
#427=ADVANCED_FACE('',(#57),#416,.T.);
#428=ADVANCED_FACE('',(#58),#23,.T.);
#429=ADVANCED_FACE('',(#59),#24,.T.);
#430=ADVANCED_FACE('',(#60),#25,.T.);
#431=ADVANCED_FACE('',(#61),#46,.T.);
#432=ADVANCED_FACE('',(#62),#26,.T.);
#433=ADVANCED_FACE('',(#63),#27,.T.);
#434=ADVANCED_FACE('',(#64),#28,.T.);
#435=ADVANCED_FACE('',(#65),#29,.T.);
#436=ADVANCED_FACE('',(#66),#30,.T.);
#437=ADVANCED_FACE('',(#67),#31,.T.);
#438=ADVANCED_FACE('',(#68),#32,.T.);
#439=ADVANCED_FACE('',(#69),#33,.F.);
#440=CLOSED_SHELL('',(#417,#418,#419,#420,#421,#422,#423,#424,#425,#426,
#427,#428,#429,#430,#431,#432,#433,#434,#435,#436,#437,#438,#439));
#441=DERIVED_UNIT_ELEMENT(#443,1.);
#442=DERIVED_UNIT_ELEMENT(#770,-3.);
#443=(
MASS_UNIT()
NAMED_UNIT(*)
SI_UNIT(.KILO.,.GRAM.)
);
#444=DERIVED_UNIT((#441,#442));
#445=MEASURE_REPRESENTATION_ITEM('density measure',
POSITIVE_RATIO_MEASURE(7850.),#444);
#446=PROPERTY_DEFINITION_REPRESENTATION(#451,#448);
#447=PROPERTY_DEFINITION_REPRESENTATION(#452,#449);
#448=REPRESENTATION('material name',(#450),#767);
#449=REPRESENTATION('density',(#445),#767);
#450=DESCRIPTIVE_REPRESENTATION_ITEM('Steel','Steel');
#451=PROPERTY_DEFINITION('material property','material name',#777);
#452=PROPERTY_DEFINITION('material property','density of part',#777);
#453=AXIS2_PLACEMENT_3D('',#617,#494,#495);
#454=AXIS2_PLACEMENT_3D('',#618,#496,#497);
#455=AXIS2_PLACEMENT_3D('',#623,#499,#500);
#456=AXIS2_PLACEMENT_3D('',#626,#502,#503);
#457=AXIS2_PLACEMENT_3D('',#638,#504,#505);
#458=AXIS2_PLACEMENT_3D('',#640,#506,#507);
#459=AXIS2_PLACEMENT_3D('',#644,#509,#510);
#460=AXIS2_PLACEMENT_3D('',#648,#512,#513);
#461=AXIS2_PLACEMENT_3D('',#650,#515,#516);
#462=AXIS2_PLACEMENT_3D('',#653,#517,#518);
#463=AXIS2_PLACEMENT_3D('',#663,#524,#525);
#464=AXIS2_PLACEMENT_3D('',#665,#526,#527);
#465=AXIS2_PLACEMENT_3D('',#677,#528,#529);
#466=AXIS2_PLACEMENT_3D('',#681,#531,#532);
#467=AXIS2_PLACEMENT_3D('',#689,#537,#538);
#468=AXIS2_PLACEMENT_3D('',#690,#539,#540);
#469=AXIS2_PLACEMENT_3D('',#691,#541,#542);
#470=AXIS2_PLACEMENT_3D('',#702,#548,#549);
#471=AXIS2_PLACEMENT_3D('',#703,#550,#551);
#472=AXIS2_PLACEMENT_3D('',#704,#552,#553);
#473=AXIS2_PLACEMENT_3D('',#705,#554,#555);
#474=AXIS2_PLACEMENT_3D('',#707,#556,#557);
#475=AXIS2_PLACEMENT_3D('',#708,#558,#559);
#476=AXIS2_PLACEMENT_3D('',#710,#561,#562);
#477=AXIS2_PLACEMENT_3D('',#712,#563,#564);
#478=AXIS2_PLACEMENT_3D('',#714,#566,#567);
#479=AXIS2_PLACEMENT_3D('',#715,#568,#569);
#480=AXIS2_PLACEMENT_3D('',#716,#570,#571);
#481=AXIS2_PLACEMENT_3D('',#717,#572,#573);
#482=AXIS2_PLACEMENT_3D('',#723,#577,#578);
#483=AXIS2_PLACEMENT_3D('',#727,#581,#582);
#484=AXIS2_PLACEMENT_3D('',#738,#585,#586);
#485=AXIS2_PLACEMENT_3D('',#741,#588,#589);
#486=AXIS2_PLACEMENT_3D('',#742,#590,#591);
#487=AXIS2_PLACEMENT_3D('',#751,#596,#597);
#488=AXIS2_PLACEMENT_3D('',#754,#600,#601);
#489=AXIS2_PLACEMENT_3D('',#757,#604,#605);
#490=AXIS2_PLACEMENT_3D('',#759,#607,#608);
#491=AXIS2_PLACEMENT_3D('',#761,#610,#611);
#492=AXIS2_PLACEMENT_3D('',#763,#613,#614);
#493=AXIS2_PLACEMENT_3D('',#764,#615,#616);
#494=DIRECTION('axis',(0.,0.,1.));
#495=DIRECTION('refdir',(1.,0.,0.));
#496=DIRECTION('center_axis',(0.,0.,-1.));
#497=DIRECTION('ref_axis',(-0.936871460236287,0.349673943831574,0.));
#498=DIRECTION('',(0.,0.,1.));
#499=DIRECTION('center_axis',(0.,0.,-1.));
#500=DIRECTION('ref_axis',(1.,0.,0.));
#501=DIRECTION('',(0.,0.,-1.));
#502=DIRECTION('center_axis',(0.,0.,1.));
#503=DIRECTION('ref_axis',(1.,0.,0.));
#504=DIRECTION('center_axis',(0.,0.,1.));
#505=DIRECTION('ref_axis',(0.,-1.,0.));
#506=DIRECTION('center_axis',(0.,0.,-1.));
#507=DIRECTION('ref_axis',(0.,-1.,0.));
#508=DIRECTION('',(0.,0.,-1.));
#509=DIRECTION('center_axis',(0.,0.,-1.));
#510=DIRECTION('ref_axis',(0.,-1.,0.));
#511=DIRECTION('',(0.,0.,-1.));
#512=DIRECTION('center_axis',(0.,0.,1.));
#513=DIRECTION('ref_axis',(0.,-1.,0.));
#514=DIRECTION('',(0.,0.,-1.));
#515=DIRECTION('center_axis',(0.,0.,-1.));
#516=DIRECTION('ref_axis',(-1.,0.,0.));
#517=DIRECTION('center_axis',(0.,0.,1.));
#518=DIRECTION('ref_axis',(0.,-1.,0.));
#519=DIRECTION('',(0.,1.,0.));
#520=DIRECTION('',(-1.,0.,0.));
#521=DIRECTION('',(0.,1.,0.));
#522=DIRECTION('',(-1.,0.,0.));
#523=DIRECTION('',(0.,1.,0.));
#524=DIRECTION('center_axis',(0.,0.,-1.));
#525=DIRECTION('ref_axis',(1.,0.,0.));
#526=DIRECTION('center_axis',(0.,0.,-1.));
#527=DIRECTION('ref_axis',(1.,0.,0.));
#528=DIRECTION('center_axis',(0.,0.,-1.));
#529=DIRECTION('ref_axis',(0.,-1.,0.));
#530=DIRECTION('',(0.,0.,1.));
#531=DIRECTION('center_axis',(0.,0.,1.));
#532=DIRECTION('ref_axis',(0.,-1.,0.));
#533=DIRECTION('',(0.,0.,1.));
#534=DIRECTION('',(0.,0.,-1.));
#535=DIRECTION('',(0.,0.,1.));
#536=DIRECTION('',(0.,0.,1.));
#537=DIRECTION('center_axis',(0.,0.,1.));
#538=DIRECTION('ref_axis',(0.,-1.,0.));
#539=DIRECTION('center_axis',(0.,0.,1.));
#540=DIRECTION('ref_axis',(1.,0.,0.));
#541=DIRECTION('center_axis',(0.,0.,-1.));
#542=DIRECTION('ref_axis',(1.,0.,0.));
#543=DIRECTION('',(0.,1.,0.));
#544=DIRECTION('',(1.,0.,0.));
#545=DIRECTION('',(0.,1.,0.));
#546=DIRECTION('',(1.,0.,0.));
#547=DIRECTION('',(0.,1.,0.));
#548=DIRECTION('center_axis',(0.,0.,-1.));
#549=DIRECTION('ref_axis',(0.,1.,0.));
#550=DIRECTION('center_axis',(0.,0.,-1.));
#551=DIRECTION('ref_axis',(0.797175678469323,-0.603747412132735,0.));
#552=DIRECTION('center_axis',(0.,0.,-1.));
#553=DIRECTION('ref_axis',(1.,0.,0.));
#554=DIRECTION('center_axis',(0.,0.,1.));
#555=DIRECTION('ref_axis',(1.,0.,0.));
#556=DIRECTION('center_axis',(0.,0.,-1.));
#557=DIRECTION('ref_axis',(1.,0.,0.));
#558=DIRECTION('center_axis',(0.,0.,-1.));
#559=DIRECTION('ref_axis',(0.,1.,0.));
#560=DIRECTION('',(0.,0.,1.));
#561=DIRECTION('center_axis',(0.,0.,-1.));
#562=DIRECTION('ref_axis',(0.,1.,0.));
#563=DIRECTION('center_axis',(0.,0.,-1.));
#564=DIRECTION('ref_axis',(1.,0.,0.));
#565=DIRECTION('',(0.,0.,1.));
#566=DIRECTION('center_axis',(0.,0.,-1.));
#567=DIRECTION('ref_axis',(-1.,0.,0.));
#568=DIRECTION('center_axis',(0.,0.,-1.));
#569=DIRECTION('ref_axis',(1.,0.,0.));
#570=DIRECTION('center_axis',(0.,0.,-1.));
#571=DIRECTION('ref_axis',(0.797175678469323,-0.603747412132735,0.));
#572=DIRECTION('center_axis',(1.,0.,0.));
#573=DIRECTION('ref_axis',(0.,-1.,0.));
#574=DIRECTION('',(0.,1.,0.));
#575=DIRECTION('',(0.,-1.,0.));
#576=DIRECTION('',(0.,0.,-1.));
#577=DIRECTION('center_axis',(-1.,0.,2.54984518909357E-33));
#578=DIRECTION('ref_axis',(2.54984518909357E-33,0.,1.));
#579=DIRECTION('',(0.,1.,0.));
#580=DIRECTION('',(2.54984518909357E-33,0.,1.));
#581=DIRECTION('center_axis',(-1.,0.,2.54984518909357E-33));
#582=DIRECTION('ref_axis',(2.54984518909357E-33,0.,1.));
#583=DIRECTION('',(2.54984518909357E-33,0.,1.));
#584=DIRECTION('',(0.,-1.,0.));
#585=DIRECTION('center_axis',(0.,0.,1.));
#586=DIRECTION('ref_axis',(0.,1.,0.));
#587=DIRECTION('',(0.,0.,1.));
#588=DIRECTION('center_axis',(0.,0.,-1.));
#589=DIRECTION('ref_axis',(0.,1.,0.));
#590=DIRECTION('center_axis',(-1.,0.,0.));
#591=DIRECTION('ref_axis',(0.,0.,1.));
#592=DIRECTION('',(0.,0.,-1.));
#593=DIRECTION('',(0.,1.,0.));
#594=DIRECTION('',(0.,0.,1.));
#595=DIRECTION('',(0.,1.,0.));
#596=DIRECTION('center_axis',(0.,0.,1.));
#597=DIRECTION('ref_axis',(1.,0.,0.));
#598=DIRECTION('',(-1.,0.,0.));
#599=DIRECTION('',(1.,0.,0.));
#600=DIRECTION('center_axis',(0.,0.,-1.));
#601=DIRECTION('ref_axis',(-1.,0.,0.));
#602=DIRECTION('',(1.,0.,0.));
#603=DIRECTION('',(-1.,0.,0.));
#604=DIRECTION('center_axis',(0.,1.,0.));
#605=DIRECTION('ref_axis',(0.,0.,1.));
#606=DIRECTION('',(0.,0.,-1.));
#607=DIRECTION('center_axis',(1.,0.,0.));
#608=DIRECTION('ref_axis',(0.,0.,-1.));
#609=DIRECTION('',(0.,0.,-1.));
#610=DIRECTION('center_axis',(-1.,0.,2.54984518909357E-33));
#611=DIRECTION('ref_axis',(2.54984518909357E-33,0.,1.));
#612=DIRECTION('',(2.54984518909357E-33,0.,1.));
#613=DIRECTION('center_axis',(0.,1.,0.));
#614=DIRECTION('ref_axis',(0.,0.,1.));
#615=DIRECTION('center_axis',(0.,1.,0.));
#616=DIRECTION('ref_axis',(1.,0.,0.));
#617=CARTESIAN_POINT('',(0.,0.,0.));
#618=CARTESIAN_POINT('Origin',(-0.0100000004749722,45.5162807093282,-26.67));
#619=CARTESIAN_POINT('',(-3.21093484156458,45.4336965516546,-70.01));
#620=CARTESIAN_POINT('',(-3.21093484156458,45.4336965516546,-26.67));
#621=CARTESIAN_POINT('',(-3.21093484156458,45.4336965516546,-26.67));
#622=CARTESIAN_POINT('',(-2.37405721940747,47.6759189812647,-70.01));
#623=CARTESIAN_POINT('Origin',(-0.0100000004749722,45.5162807093282,-70.01));
#624=CARTESIAN_POINT('',(-2.37405721940747,47.6759189812647,-26.67));
#625=CARTESIAN_POINT('',(-2.37405721940747,47.6759189812647,-26.67));
#626=CARTESIAN_POINT('Origin',(-0.0100000004749722,45.5162807093282,-26.67));
#627=CARTESIAN_POINT('Ctrl Pts',(4.16333634234434E-16,0.110282306930407,
0.));
#628=CARTESIAN_POINT('Ctrl Pts',(-15.423965761554,2.15206633409175,0.));
#629=CARTESIAN_POINT('Ctrl Pts',(-15.8241619590064,23.5408680837044,0.));
#630=CARTESIAN_POINT('Ctrl Pts',(-16.2243581564588,44.9296698333171,0.));
#631=CARTESIAN_POINT('Ctrl Pts',(-0.897325392859338,48.0685464157385,0.));
#632=CARTESIAN_POINT('Ctrl Pts',(4.16333634234434E-16,0.110282306930407,
-96.68));
#633=CARTESIAN_POINT('Ctrl Pts',(-15.423965761554,2.15206633409175,-96.68));
#634=CARTESIAN_POINT('Ctrl Pts',(-15.8241619590064,23.5408680837044,-96.68));
#635=CARTESIAN_POINT('Ctrl Pts',(-16.2243581564588,44.9296698333171,-96.68));
#636=CARTESIAN_POINT('Ctrl Pts',(-0.897325392859338,48.0685464157385,-96.68));
#637=CARTESIAN_POINT('',(-0.897325392859335,48.0685464157385,-26.67));
#638=CARTESIAN_POINT('Origin',(1.67000007932074,24.1650011477759,-26.67));
#639=CARTESIAN_POINT('',(-0.897325392859335,48.0685464157385,-70.01));
#640=CARTESIAN_POINT('Origin',(1.67000007932074,24.1650011477759,-70.01));
#641=CARTESIAN_POINT('',(-0.897325392859335,48.0685464157385,-96.68));
#642=CARTESIAN_POINT('',(-0.897325392859335,48.0685464157385,-83.345));
#643=CARTESIAN_POINT('',(2.77555756156289E-16,0.110282306930412,-96.68));
#644=CARTESIAN_POINT('Origin',(1.67000007932074,24.1650011477759,-96.68));
#645=CARTESIAN_POINT('',(2.77555756156289E-16,0.110282306930407,0.));
#646=CARTESIAN_POINT('',(0.,0.110282306930407,0.));
#647=CARTESIAN_POINT('',(-0.897325392859335,48.0685464157385,0.));
#648=CARTESIAN_POINT('Origin',(1.67000007932074,24.1650011477759,0.));
#649=CARTESIAN_POINT('',(-0.897325392859335,48.0685464157385,-13.335));
#650=CARTESIAN_POINT('Origin',(64.68,0.,-96.68));
#651=CARTESIAN_POINT('',(-2.70721974718471,45.6787990961261,-96.68));
#652=CARTESIAN_POINT('',(0.,1.81203658351725,-96.68));
#653=CARTESIAN_POINT('Origin',(1.67000007932074,24.1650011477759,-96.68));
#654=CARTESIAN_POINT('',(0.,3.34,-96.68));
#655=CARTESIAN_POINT('',(-2.46519032881566E-31,0.,-96.68));
#656=CARTESIAN_POINT('',(64.68,3.34,-96.68));
#657=CARTESIAN_POINT('',(64.68,3.34,-96.68));
#658=CARTESIAN_POINT('',(64.68,0.,-96.68));
#659=CARTESIAN_POINT('',(64.68,0.,-96.68));
#660=CARTESIAN_POINT('',(-2.46519032881566E-31,0.,-96.68));
#661=CARTESIAN_POINT('',(64.68,0.,-96.68));
#662=CARTESIAN_POINT('',(-2.46519032881566E-31,0.,-96.68));
#663=CARTESIAN_POINT('Origin',(-0.0100000004749745,45.5162807093282,-96.68));
#664=CARTESIAN_POINT('',(-0.0100000004749746,44.5162807093282,-96.68));
#665=CARTESIAN_POINT('Origin',(-0.0100000004749745,45.5162807093282,-96.68));
#666=CARTESIAN_POINT('Ctrl Pts',(0.,1.81203658351725,0.));
#667=CARTESIAN_POINT('Ctrl Pts',(-12.1404553449291,3.85152314753233,0.));
#668=CARTESIAN_POINT('Ctrl Pts',(-13.2661790068715,22.0923226188726,0.));
#669=CARTESIAN_POINT('Ctrl Pts',(-14.3919026688138,40.3331220902128,0.));
#670=CARTESIAN_POINT('Ctrl Pts',(-2.7072197471847,45.6787990961261,0.));
#671=CARTESIAN_POINT('Ctrl Pts',(0.,1.81203658351725,-96.68));
#672=CARTESIAN_POINT('Ctrl Pts',(-12.1404553449291,3.85152314753233,-96.68));
#673=CARTESIAN_POINT('Ctrl Pts',(-13.2661790068715,22.0923226188726,-96.68));
#674=CARTESIAN_POINT('Ctrl Pts',(-14.3919026688138,40.3331220902128,-96.68));
#675=CARTESIAN_POINT('Ctrl Pts',(-2.7072197471847,45.6787990961261,-96.68));
#676=CARTESIAN_POINT('',(-2.70721974718471,45.6787990961261,-26.67));
#677=CARTESIAN_POINT('Origin',(1.67000007932074,24.1650011477759,-26.67));
#678=CARTESIAN_POINT('',(-2.70721974718471,45.6787990961261,0.));
#679=CARTESIAN_POINT('',(-2.70721974718471,45.6787990961261,-13.335));
#680=CARTESIAN_POINT('',(0.,1.81203658351725,0.));
#681=CARTESIAN_POINT('Origin',(1.67000007932074,24.1650011477759,0.));
#682=CARTESIAN_POINT('',(0.,1.81203658351725,-1.67));
#683=CARTESIAN_POINT('',(0.,1.81203658351725,0.));
#684=CARTESIAN_POINT('',(0.,1.81203658351725,-95.01));
#685=CARTESIAN_POINT('',(0.,1.81203658351725,0.));
#686=CARTESIAN_POINT('',(0.,1.81203658351725,0.));
#687=CARTESIAN_POINT('',(-2.70721974718471,45.6787990961261,-70.01));
#688=CARTESIAN_POINT('',(-2.70721974718471,45.6787990961261,-83.345));
#689=CARTESIAN_POINT('Origin',(1.67000007932074,24.1650011477759,-70.01));
#690=CARTESIAN_POINT('Origin',(0.,0.,0.));
#691=CARTESIAN_POINT('Origin',(-0.0100000004749745,45.5162807093282,0.));
#692=CARTESIAN_POINT('',(0.,0.,0.));
#693=CARTESIAN_POINT('',(0.,0.,0.));
#694=CARTESIAN_POINT('',(64.68,0.,0.));
#695=CARTESIAN_POINT('',(0.,0.,0.));
#696=CARTESIAN_POINT('',(64.68,3.34,0.));
#697=CARTESIAN_POINT('',(64.68,0.,0.));
#698=CARTESIAN_POINT('',(0.,3.34,0.));
#699=CARTESIAN_POINT('',(0.,3.34,0.));
#700=CARTESIAN_POINT('',(0.,0.,0.));
#701=CARTESIAN_POINT('',(-0.0100000004749746,44.5162807093282,0.));
#702=CARTESIAN_POINT('Origin',(-0.0100000004749745,45.5162807093282,0.));
#703=CARTESIAN_POINT('Origin',(-0.0100000004749745,45.5162807093282,-83.345));
#704=CARTESIAN_POINT('Origin',(-0.0100000004749745,45.5162807093282,-70.01));
#705=CARTESIAN_POINT('Origin',(-0.0100000004749745,48.2183922148157,-70.01));
#706=CARTESIAN_POINT('',(-0.0100000004749746,44.5162807093282,-70.01));
#707=CARTESIAN_POINT('Origin',(-0.0100000004749745,45.5162807093282,-70.01));
#708=CARTESIAN_POINT('Origin',(-0.0100000004749745,45.5162807093282,-83.345));
#709=CARTESIAN_POINT('',(-0.0100000004749746,44.5162807093282,-83.345));
#710=CARTESIAN_POINT('Origin',(-0.0100000004749745,45.5162807093282,-13.335));
#711=CARTESIAN_POINT('',(-0.0100000004749746,44.5162807093282,-26.67));
#712=CARTESIAN_POINT('Origin',(-0.0100000004749745,45.5162807093282,-26.67));
#713=CARTESIAN_POINT('',(-0.0100000004749746,44.5162807093282,-13.335));
#714=CARTESIAN_POINT('Origin',(-0.0100000004749745,46.5162807093282,-26.67));
#715=CARTESIAN_POINT('Origin',(-0.0100000004749745,45.5162807093282,-26.67));
#716=CARTESIAN_POINT('Origin',(-0.0100000004749745,45.5162807093282,-13.335));
#717=CARTESIAN_POINT('Origin',(0.,1.81203658351725,0.));
#718=CARTESIAN_POINT('',(0.,1.80987980801534,-95.01));
#719=CARTESIAN_POINT('',(0.,12.085,-95.01));
#720=CARTESIAN_POINT('',(0.,1.80987980801534,-1.67));
#721=CARTESIAN_POINT('',(0.,12.085,-1.67));
#722=CARTESIAN_POINT('',(0.,1.80987980801534,-1.67));
#723=CARTESIAN_POINT('Origin',(-2.46519032881566E-31,0.,-96.68));
#724=CARTESIAN_POINT('',(-2.4226079141578E-31,3.34,-95.01));
#725=CARTESIAN_POINT('',(0.,12.085,-95.01));
#726=CARTESIAN_POINT('',(-2.46519032881566E-31,3.34,-96.68));
#727=CARTESIAN_POINT('Origin',(-2.46519032881566E-31,0.,-96.68));
#728=CARTESIAN_POINT('',(-4.25824146578626E-33,3.34,-1.67));
#729=CARTESIAN_POINT('',(-2.46519032881566E-31,3.34,-96.68));
#730=CARTESIAN_POINT('',(0.,12.085,-1.67));
#731=CARTESIAN_POINT('Ctrl Pts',(1.67,1.67,-1.67));
#732=CARTESIAN_POINT('Ctrl Pts',(0.832396359189562,1.67,-1.67));
#733=CARTESIAN_POINT('Ctrl Pts',(-6.52256026967279E-15,1.80987980801534,
-1.67));
#734=CARTESIAN_POINT('Ctrl Pts',(1.67,1.67,-95.01));
#735=CARTESIAN_POINT('Ctrl Pts',(0.832396359189562,1.67,-95.01));
#736=CARTESIAN_POINT('Ctrl Pts',(-6.52256026967279E-15,1.80987980801534,
-95.01));
#737=CARTESIAN_POINT('',(1.67,1.67,-1.67));
#738=CARTESIAN_POINT('Origin',(1.67,24.17,-1.67));
#739=CARTESIAN_POINT('',(1.67,1.67,-95.01));
#740=CARTESIAN_POINT('',(1.67,1.67,-25.005));
#741=CARTESIAN_POINT('Origin',(1.67,24.17,-95.01));
#742=CARTESIAN_POINT('Origin',(63.01,1.67,-95.01));
#743=CARTESIAN_POINT('',(63.01,1.67,-1.67));
#744=CARTESIAN_POINT('',(63.01,1.67,-95.01));
#745=CARTESIAN_POINT('',(63.01,1.67,-71.675));
#746=CARTESIAN_POINT('',(63.01,3.34,-1.67));
#747=CARTESIAN_POINT('',(63.01,1.67,-1.67));
#748=CARTESIAN_POINT('',(63.01,3.34,-95.01));
#749=CARTESIAN_POINT('',(63.01,3.34,-95.01));
#750=CARTESIAN_POINT('',(63.01,1.67,-95.01));
#751=CARTESIAN_POINT('Origin',(1.67,1.67,-95.01));
#752=CARTESIAN_POINT('',(17.005,1.67,-95.01));
#753=CARTESIAN_POINT('',(13.255,3.34,-95.01));
#754=CARTESIAN_POINT('Origin',(63.01,1.67,-1.67));
#755=CARTESIAN_POINT('',(47.675,1.67,-1.67));
#756=CARTESIAN_POINT('',(63.01,3.34,-1.67));
#757=CARTESIAN_POINT('Origin',(32.34,3.34,-48.34));
#758=CARTESIAN_POINT('',(64.68,3.34,0.));
#759=CARTESIAN_POINT('Origin',(64.68,0.,0.));
#760=CARTESIAN_POINT('',(64.68,0.,0.));
#761=CARTESIAN_POINT('Origin',(-2.46519032881566E-31,0.,-96.68));
#762=CARTESIAN_POINT('',(-2.46519032881566E-31,0.,-96.68));
#763=CARTESIAN_POINT('Origin',(32.34,1.67,-48.34));
#764=CARTESIAN_POINT('Origin',(32.34,0.,-48.34));
#765=UNCERTAINTY_MEASURE_WITH_UNIT(LENGTH_MEASURE(0.01),#769,
'DISTANCE_ACCURACY_VALUE',
'Maximum model space distance between geometric entities at asserted c
onnectivities');
#766=UNCERTAINTY_MEASURE_WITH_UNIT(LENGTH_MEASURE(0.01),#769,
'DISTANCE_ACCURACY_VALUE',
'Maximum model space distance between geometric entities at asserted c
onnectivities');
#767=(
GEOMETRIC_REPRESENTATION_CONTEXT(3)
GLOBAL_UNCERTAINTY_ASSIGNED_CONTEXT((#765))
GLOBAL_UNIT_ASSIGNED_CONTEXT((#769,#771,#772))
REPRESENTATION_CONTEXT('','3D')
);
#768=(
GEOMETRIC_REPRESENTATION_CONTEXT(3)
GLOBAL_UNCERTAINTY_ASSIGNED_CONTEXT((#766))
GLOBAL_UNIT_ASSIGNED_CONTEXT((#769,#771,#772))
REPRESENTATION_CONTEXT('','3D')
);
#769=(
LENGTH_UNIT()
NAMED_UNIT(*)
SI_UNIT(.MILLI.,.METRE.)
);
#770=(
LENGTH_UNIT()
NAMED_UNIT(*)
SI_UNIT($,.METRE.)
);
#771=(
NAMED_UNIT(*)
PLANE_ANGLE_UNIT()
SI_UNIT($,.RADIAN.)
);
#772=(
NAMED_UNIT(*)
SI_UNIT($,.STERADIAN.)
SOLID_ANGLE_UNIT()
);
#773=SHAPE_DEFINITION_REPRESENTATION(#774,#775);
#774=PRODUCT_DEFINITION_SHAPE('',$,#777);
#775=SHAPE_REPRESENTATION('',(#453),#767);
#776=PRODUCT_DEFINITION_CONTEXT('part definition',#781,'design');
#777=PRODUCT_DEFINITION('Krabi\X2\010D\X0\ka na karty 3',
'Krabi\X2\010D\X0\ka na karty 3 v11',#778,#776);
#778=PRODUCT_DEFINITION_FORMATION('',$,#783);
#779=PRODUCT_RELATED_PRODUCT_CATEGORY('Krabi\X2\010D\X0\ka na karty 3 
v11','Krabi\X2\010D\X0\ka na karty 3 v11',(#783));
#780=APPLICATION_PROTOCOL_DEFINITION('international standard',
'automotive_design',2009,#781);
#781=APPLICATION_CONTEXT(
'Core Data for Automotive Mechanical Design Process');
#782=PRODUCT_CONTEXT('part definition',#781,'mechanical');
#783=PRODUCT('Krabi\X2\010D\X0\ka na karty 3',
'Krabi\X2\010D\X0\ka na karty 3 v11',$,(#782));
#784=PRESENTATION_STYLE_ASSIGNMENT((#785));
#785=SURFACE_STYLE_USAGE(.BOTH.,#786);
#786=SURFACE_SIDE_STYLE('',(#787));
#787=SURFACE_STYLE_FILL_AREA(#788);
#788=FILL_AREA_STYLE('Steel - Satin',(#789));
#789=FILL_AREA_STYLE_COLOUR('Steel - Satin',#790);
#790=COLOUR_RGB('Steel - Satin',0.627450980392157,0.627450980392157,0.627450980392157);
ENDSEC;
END-ISO-10303-21;
