ISO-10303-21;
HEADER;
/* Generated by software containing ST-Developer
 * from STEP Tools, Inc. (www.steptools.com) 
 */

FILE_DESCRIPTION(
/* description */ (''),
/* implementation_level */ '2;1');

FILE_NAME(
/* name */ '',
/* time_stamp */ '2026-06-08T11:26:10+02:00',
/* author */ (''),
/* organization */ (''),
/* preprocessor_version */ 'ST-DEVELOPER v20.1',
/* originating_system */ 'Autodesk Translation Framework v15.8.0.0',
/* authorisation */ '');

FILE_SCHEMA (('AUTOMOTIVE_DESIGN { 1 0 10303 214 3 1 1 }'));
ENDSEC;

DATA;
#10=MECHANICAL_DESIGN_GEOMETRIC_PRESENTATION_REPRESENTATION('',(#13),#696);
#11=SHAPE_REPRESENTATION_RELATIONSHIP('SRR','None',#703,#12);
#12=ADVANCED_BREP_SHAPE_REPRESENTATION('',(#14),#695);
#13=STYLED_ITEM('',(#712),#14);
#14=MANIFOLD_SOLID_BREP('Body10',#412);
#15=FACE_BOUND('',#61,.T.);
#16=FACE_BOUND('',#69,.T.);
#17=PLANE('',#430);
#18=PLANE('',#431);
#19=PLANE('',#432);
#20=PLANE('',#433);
#21=PLANE('',#434);
#22=PLANE('',#436);
#23=PLANE('',#440);
#24=PLANE('',#445);
#25=PLANE('',#449);
#26=PLANE('',#450);
#27=PLANE('',#451);
#28=PLANE('',#454);
#29=PLANE('',#456);
#30=PLANE('',#457);
#31=PLANE('',#459);
#32=PLANE('',#460);
#33=FACE_OUTER_BOUND('',#54,.T.);
#34=FACE_OUTER_BOUND('',#55,.T.);
#35=FACE_OUTER_BOUND('',#56,.T.);
#36=FACE_OUTER_BOUND('',#57,.T.);
#37=FACE_OUTER_BOUND('',#58,.T.);
#38=FACE_OUTER_BOUND('',#59,.T.);
#39=FACE_OUTER_BOUND('',#60,.T.);
#40=FACE_OUTER_BOUND('',#62,.T.);
#41=FACE_OUTER_BOUND('',#63,.T.);
#42=FACE_OUTER_BOUND('',#64,.T.);
#43=FACE_OUTER_BOUND('',#65,.T.);
#44=FACE_OUTER_BOUND('',#66,.T.);
#45=FACE_OUTER_BOUND('',#67,.T.);
#46=FACE_OUTER_BOUND('',#68,.T.);
#47=FACE_OUTER_BOUND('',#70,.T.);
#48=FACE_OUTER_BOUND('',#71,.T.);
#49=FACE_OUTER_BOUND('',#72,.T.);
#50=FACE_OUTER_BOUND('',#73,.T.);
#51=FACE_OUTER_BOUND('',#74,.T.);
#52=FACE_OUTER_BOUND('',#75,.T.);
#53=FACE_OUTER_BOUND('',#76,.T.);
#54=EDGE_LOOP('',(#272,#273,#274,#275,#276,#277));
#55=EDGE_LOOP('',(#278,#279,#280,#281));
#56=EDGE_LOOP('',(#282,#283,#284,#285));
#57=EDGE_LOOP('',(#286,#287,#288,#289));
#58=EDGE_LOOP('',(#290,#291,#292,#293,#294,#295,#296,#297));
#59=EDGE_LOOP('',(#298,#299,#300,#301,#302,#303,#304));
#60=EDGE_LOOP('',(#305,#306,#307,#308,#309,#310,#311));
#61=EDGE_LOOP('',(#312));
#62=EDGE_LOOP('',(#313,#314,#315,#316));
#63=EDGE_LOOP('',(#317,#318,#319,#320,#321,#322));
#64=EDGE_LOOP('',(#323,#324,#325,#326));
#65=EDGE_LOOP('',(#327,#328,#329,#330,#331,#332,#333,#334));
#66=EDGE_LOOP('',(#335,#336,#337,#338,#339,#340,#341));
#67=EDGE_LOOP('',(#342,#343,#344,#345));
#68=EDGE_LOOP('',(#346,#347,#348,#349,#350,#351,#352));
#69=EDGE_LOOP('',(#353));
#70=EDGE_LOOP('',(#354,#355,#356,#357,#358,#359,#360,#361));
#71=EDGE_LOOP('',(#362,#363,#364,#365));
#72=EDGE_LOOP('',(#366,#367,#368,#369));
#73=EDGE_LOOP('',(#370,#371,#372,#373));
#74=EDGE_LOOP('',(#374,#375,#376,#377));
#75=EDGE_LOOP('',(#378,#379,#380,#381));
#76=EDGE_LOOP('',(#382,#383,#384,#385));
#77=CIRCLE('',#427,3.202);
#78=CIRCLE('',#428,3.202);
#79=CIRCLE('',#429,3.202);
#80=CIRCLE('',#435,1.67);
#81=CIRCLE('',#437,2.70211150548757);
#82=CIRCLE('',#438,1.67);
#83=CIRCLE('',#439,0.999999999999996);
#84=CIRCLE('',#442,3.202);
#85=CIRCLE('',#443,3.202);
#86=CIRCLE('',#444,3.202);
#87=CIRCLE('',#447,1.67);
#88=CIRCLE('',#448,1.67);
#89=CIRCLE('',#452,2.70211150548757);
#90=CIRCLE('',#453,0.999999999999996);
#91=LINE('',#580,#134);
#92=LINE('',#584,#135);
#93=LINE('',#588,#136);
#94=LINE('',#592,#137);
#95=LINE('',#594,#138);
#96=LINE('',#595,#139);
#97=LINE('',#599,#140);
#98=LINE('',#600,#141);
#99=LINE('',#601,#142);
#100=LINE('',#604,#143);
#101=LINE('',#606,#144);
#102=LINE('',#607,#145);
#103=LINE('',#610,#146);
#104=LINE('',#612,#147);
#105=LINE('',#614,#148);
#106=LINE('',#616,#149);
#107=LINE('',#618,#150);
#108=LINE('',#619,#151);
#109=LINE('',#624,#152);
#110=LINE('',#625,#153);
#111=LINE('',#631,#154);
#112=LINE('',#633,#155);
#113=LINE('',#639,#156);
#114=LINE('',#641,#157);
#115=LINE('',#643,#158);
#116=LINE('',#644,#159);
#117=LINE('',#648,#160);
#118=LINE('',#653,#161);
#119=LINE('',#656,#162);
#120=LINE('',#657,#163);
#121=LINE('',#660,#164);
#122=LINE('',#664,#165);
#123=LINE('',#667,#166);
#124=LINE('',#668,#167);
#125=LINE('',#671,#168);
#126=LINE('',#672,#169);
#127=LINE('',#676,#170);
#128=LINE('',#681,#171);
#129=LINE('',#682,#172);
#130=LINE('',#683,#173);
#131=LINE('',#686,#174);
#132=LINE('',#688,#175);
#133=LINE('',#690,#176);
#134=VECTOR('',#465,10.);
#135=VECTOR('',#468,10.);
#136=VECTOR('',#471,10.);
#137=VECTOR('',#476,10.);
#138=VECTOR('',#477,10.);
#139=VECTOR('',#478,10.);
#140=VECTOR('',#481,10.);
#141=VECTOR('',#482,10.);
#142=VECTOR('',#483,10.);
#143=VECTOR('',#486,10.);
#144=VECTOR('',#487,10.);
#145=VECTOR('',#488,10.);
#146=VECTOR('',#491,10.);
#147=VECTOR('',#492,10.);
#148=VECTOR('',#493,10.);
#149=VECTOR('',#494,10.);
#150=VECTOR('',#495,10.);
#151=VECTOR('',#496,10.);
#152=VECTOR('',#501,10.);
#153=VECTOR('',#502,10.);
#154=VECTOR('',#507,10.);
#155=VECTOR('',#510,10.);
#156=VECTOR('',#515,10.);
#157=VECTOR('',#516,10.);
#158=VECTOR('',#517,10.);
#159=VECTOR('',#518,10.);
#160=VECTOR('',#521,10.);
#161=VECTOR('',#526,10.);
#162=VECTOR('',#531,10.);
#163=VECTOR('',#532,10.);
#164=VECTOR('',#535,10.);
#165=VECTOR('',#540,10.);
#166=VECTOR('',#543,10.);
#167=VECTOR('',#544,10.);
#168=VECTOR('',#547,10.);
#169=VECTOR('',#548,10.);
#170=VECTOR('',#553,10.);
#171=VECTOR('',#558,10.);
#172=VECTOR('',#559,10.);
#173=VECTOR('',#560,10.);
#174=VECTOR('',#565,10.);
#175=VECTOR('',#568,10.);
#176=VECTOR('',#571,0.999999999999996);
#177=VERTEX_POINT('',#578);
#178=VERTEX_POINT('',#579);
#179=VERTEX_POINT('',#581);
#180=VERTEX_POINT('',#583);
#181=VERTEX_POINT('',#585);
#182=VERTEX_POINT('',#587);
#183=VERTEX_POINT('',#591);
#184=VERTEX_POINT('',#593);
#185=VERTEX_POINT('',#597);
#186=VERTEX_POINT('',#598);
#187=VERTEX_POINT('',#603);
#188=VERTEX_POINT('',#605);
#189=VERTEX_POINT('',#609);
#190=VERTEX_POINT('',#611);
#191=VERTEX_POINT('',#613);
#192=VERTEX_POINT('',#615);
#193=VERTEX_POINT('',#617);
#194=VERTEX_POINT('',#621);
#195=VERTEX_POINT('',#623);
#196=VERTEX_POINT('',#627);
#197=VERTEX_POINT('',#628);
#198=VERTEX_POINT('',#630);
#199=VERTEX_POINT('',#634);
#200=VERTEX_POINT('',#637);
#201=VERTEX_POINT('',#638);
#202=VERTEX_POINT('',#640);
#203=VERTEX_POINT('',#642);
#204=VERTEX_POINT('',#646);
#205=VERTEX_POINT('',#647);
#206=VERTEX_POINT('',#650);
#207=VERTEX_POINT('',#652);
#208=VERTEX_POINT('',#659);
#209=VERTEX_POINT('',#662);
#210=VERTEX_POINT('',#666);
#211=VERTEX_POINT('',#670);
#212=VERTEX_POINT('',#674);
#213=VERTEX_POINT('',#677);
#214=VERTEX_POINT('',#680);
#215=EDGE_CURVE('',#177,#178,#91,.T.);
#216=EDGE_CURVE('',#177,#179,#77,.T.);
#217=EDGE_CURVE('',#179,#180,#92,.T.);
#218=EDGE_CURVE('',#181,#180,#78,.T.);
#219=EDGE_CURVE('',#182,#181,#93,.T.);
#220=EDGE_CURVE('',#178,#182,#79,.T.);
#221=EDGE_CURVE('',#183,#179,#94,.T.);
#222=EDGE_CURVE('',#183,#184,#95,.T.);
#223=EDGE_CURVE('',#180,#184,#96,.T.);
#224=EDGE_CURVE('',#185,#186,#97,.T.);
#225=EDGE_CURVE('',#184,#185,#98,.T.);
#226=EDGE_CURVE('',#186,#183,#99,.T.);
#227=EDGE_CURVE('',#187,#182,#100,.T.);
#228=EDGE_CURVE('',#188,#187,#101,.T.);
#229=EDGE_CURVE('',#178,#188,#102,.T.);
#230=EDGE_CURVE('',#181,#189,#103,.T.);
#231=EDGE_CURVE('',#189,#190,#104,.T.);
#232=EDGE_CURVE('',#190,#191,#105,.T.);
#233=EDGE_CURVE('',#191,#192,#106,.T.);
#234=EDGE_CURVE('',#192,#193,#107,.T.);
#235=EDGE_CURVE('',#193,#187,#108,.T.);
#236=EDGE_CURVE('',#185,#194,#80,.T.);
#237=EDGE_CURVE('',#194,#195,#109,.T.);
#238=EDGE_CURVE('',#195,#189,#110,.T.);
#239=EDGE_CURVE('',#196,#197,#81,.T.);
#240=EDGE_CURVE('',#198,#196,#111,.T.);
#241=EDGE_CURVE('',#186,#198,#82,.T.);
#242=EDGE_CURVE('',#197,#177,#112,.T.);
#243=EDGE_CURVE('',#199,#199,#83,.T.);
#244=EDGE_CURVE('',#200,#201,#113,.T.);
#245=EDGE_CURVE('',#200,#202,#114,.T.);
#246=EDGE_CURVE('',#203,#202,#115,.T.);
#247=EDGE_CURVE('',#201,#203,#116,.T.);
#248=EDGE_CURVE('',#204,#205,#117,.T.);
#249=EDGE_CURVE('',#192,#204,#84,.T.);
#250=EDGE_CURVE('',#206,#191,#85,.T.);
#251=EDGE_CURVE('',#206,#207,#118,.T.);
#252=EDGE_CURVE('',#207,#205,#86,.T.);
#253=EDGE_CURVE('',#203,#206,#119,.T.);
#254=EDGE_CURVE('',#202,#207,#120,.T.);
#255=EDGE_CURVE('',#208,#198,#121,.T.);
#256=EDGE_CURVE('',#208,#200,#87,.T.);
#257=EDGE_CURVE('',#209,#201,#88,.T.);
#258=EDGE_CURVE('',#194,#209,#122,.T.);
#259=EDGE_CURVE('',#210,#190,#123,.T.);
#260=EDGE_CURVE('',#210,#209,#124,.T.);
#261=EDGE_CURVE('',#196,#211,#125,.T.);
#262=EDGE_CURVE('',#211,#208,#126,.T.);
#263=EDGE_CURVE('',#212,#211,#89,.T.);
#264=EDGE_CURVE('',#205,#212,#127,.T.);
#265=EDGE_CURVE('',#213,#213,#90,.T.);
#266=EDGE_CURVE('',#188,#214,#128,.T.);
#267=EDGE_CURVE('',#214,#204,#129,.T.);
#268=EDGE_CURVE('',#212,#197,#130,.T.);
#269=EDGE_CURVE('',#195,#210,#131,.T.);
#270=EDGE_CURVE('',#214,#193,#132,.T.);
#271=EDGE_CURVE('',#199,#213,#133,.T.);
#272=ORIENTED_EDGE('',*,*,#215,.F.);
#273=ORIENTED_EDGE('',*,*,#216,.T.);
#274=ORIENTED_EDGE('',*,*,#217,.T.);
#275=ORIENTED_EDGE('',*,*,#218,.F.);
#276=ORIENTED_EDGE('',*,*,#219,.F.);
#277=ORIENTED_EDGE('',*,*,#220,.F.);
#278=ORIENTED_EDGE('',*,*,#221,.F.);
#279=ORIENTED_EDGE('',*,*,#222,.T.);
#280=ORIENTED_EDGE('',*,*,#223,.F.);
#281=ORIENTED_EDGE('',*,*,#217,.F.);
#282=ORIENTED_EDGE('',*,*,#224,.F.);
#283=ORIENTED_EDGE('',*,*,#225,.F.);
#284=ORIENTED_EDGE('',*,*,#222,.F.);
#285=ORIENTED_EDGE('',*,*,#226,.F.);
#286=ORIENTED_EDGE('',*,*,#220,.T.);
#287=ORIENTED_EDGE('',*,*,#227,.F.);
#288=ORIENTED_EDGE('',*,*,#228,.F.);
#289=ORIENTED_EDGE('',*,*,#229,.F.);
#290=ORIENTED_EDGE('',*,*,#219,.T.);
#291=ORIENTED_EDGE('',*,*,#230,.T.);
#292=ORIENTED_EDGE('',*,*,#231,.T.);
#293=ORIENTED_EDGE('',*,*,#232,.T.);
#294=ORIENTED_EDGE('',*,*,#233,.T.);
#295=ORIENTED_EDGE('',*,*,#234,.T.);
#296=ORIENTED_EDGE('',*,*,#235,.T.);
#297=ORIENTED_EDGE('',*,*,#227,.T.);
#298=ORIENTED_EDGE('',*,*,#218,.T.);
#299=ORIENTED_EDGE('',*,*,#223,.T.);
#300=ORIENTED_EDGE('',*,*,#225,.T.);
#301=ORIENTED_EDGE('',*,*,#236,.T.);
#302=ORIENTED_EDGE('',*,*,#237,.T.);
#303=ORIENTED_EDGE('',*,*,#238,.T.);
#304=ORIENTED_EDGE('',*,*,#230,.F.);
#305=ORIENTED_EDGE('',*,*,#239,.F.);
#306=ORIENTED_EDGE('',*,*,#240,.F.);
#307=ORIENTED_EDGE('',*,*,#241,.F.);
#308=ORIENTED_EDGE('',*,*,#226,.T.);
#309=ORIENTED_EDGE('',*,*,#221,.T.);
#310=ORIENTED_EDGE('',*,*,#216,.F.);
#311=ORIENTED_EDGE('',*,*,#242,.F.);
#312=ORIENTED_EDGE('',*,*,#243,.F.);
#313=ORIENTED_EDGE('',*,*,#244,.F.);
#314=ORIENTED_EDGE('',*,*,#245,.T.);
#315=ORIENTED_EDGE('',*,*,#246,.F.);
#316=ORIENTED_EDGE('',*,*,#247,.F.);
#317=ORIENTED_EDGE('',*,*,#248,.F.);
#318=ORIENTED_EDGE('',*,*,#249,.F.);
#319=ORIENTED_EDGE('',*,*,#233,.F.);
#320=ORIENTED_EDGE('',*,*,#250,.F.);
#321=ORIENTED_EDGE('',*,*,#251,.T.);
#322=ORIENTED_EDGE('',*,*,#252,.T.);
#323=ORIENTED_EDGE('',*,*,#253,.F.);
#324=ORIENTED_EDGE('',*,*,#246,.T.);
#325=ORIENTED_EDGE('',*,*,#254,.T.);
#326=ORIENTED_EDGE('',*,*,#251,.F.);
#327=ORIENTED_EDGE('',*,*,#224,.T.);
#328=ORIENTED_EDGE('',*,*,#241,.T.);
#329=ORIENTED_EDGE('',*,*,#255,.F.);
#330=ORIENTED_EDGE('',*,*,#256,.T.);
#331=ORIENTED_EDGE('',*,*,#244,.T.);
#332=ORIENTED_EDGE('',*,*,#257,.F.);
#333=ORIENTED_EDGE('',*,*,#258,.F.);
#334=ORIENTED_EDGE('',*,*,#236,.F.);
#335=ORIENTED_EDGE('',*,*,#247,.T.);
#336=ORIENTED_EDGE('',*,*,#253,.T.);
#337=ORIENTED_EDGE('',*,*,#250,.T.);
#338=ORIENTED_EDGE('',*,*,#232,.F.);
#339=ORIENTED_EDGE('',*,*,#259,.F.);
#340=ORIENTED_EDGE('',*,*,#260,.T.);
#341=ORIENTED_EDGE('',*,*,#257,.T.);
#342=ORIENTED_EDGE('',*,*,#240,.T.);
#343=ORIENTED_EDGE('',*,*,#261,.T.);
#344=ORIENTED_EDGE('',*,*,#262,.T.);
#345=ORIENTED_EDGE('',*,*,#255,.T.);
#346=ORIENTED_EDGE('',*,*,#263,.F.);
#347=ORIENTED_EDGE('',*,*,#264,.F.);
#348=ORIENTED_EDGE('',*,*,#252,.F.);
#349=ORIENTED_EDGE('',*,*,#254,.F.);
#350=ORIENTED_EDGE('',*,*,#245,.F.);
#351=ORIENTED_EDGE('',*,*,#256,.F.);
#352=ORIENTED_EDGE('',*,*,#262,.F.);
#353=ORIENTED_EDGE('',*,*,#265,.F.);
#354=ORIENTED_EDGE('',*,*,#215,.T.);
#355=ORIENTED_EDGE('',*,*,#229,.T.);
#356=ORIENTED_EDGE('',*,*,#266,.T.);
#357=ORIENTED_EDGE('',*,*,#267,.T.);
#358=ORIENTED_EDGE('',*,*,#248,.T.);
#359=ORIENTED_EDGE('',*,*,#264,.T.);
#360=ORIENTED_EDGE('',*,*,#268,.T.);
#361=ORIENTED_EDGE('',*,*,#242,.T.);
#362=ORIENTED_EDGE('',*,*,#239,.T.);
#363=ORIENTED_EDGE('',*,*,#268,.F.);
#364=ORIENTED_EDGE('',*,*,#263,.T.);
#365=ORIENTED_EDGE('',*,*,#261,.F.);
#366=ORIENTED_EDGE('',*,*,#258,.T.);
#367=ORIENTED_EDGE('',*,*,#260,.F.);
#368=ORIENTED_EDGE('',*,*,#269,.F.);
#369=ORIENTED_EDGE('',*,*,#237,.F.);
#370=ORIENTED_EDGE('',*,*,#249,.T.);
#371=ORIENTED_EDGE('',*,*,#267,.F.);
#372=ORIENTED_EDGE('',*,*,#270,.T.);
#373=ORIENTED_EDGE('',*,*,#234,.F.);
#374=ORIENTED_EDGE('',*,*,#243,.T.);
#375=ORIENTED_EDGE('',*,*,#271,.T.);
#376=ORIENTED_EDGE('',*,*,#265,.T.);
#377=ORIENTED_EDGE('',*,*,#271,.F.);
#378=ORIENTED_EDGE('',*,*,#269,.T.);
#379=ORIENTED_EDGE('',*,*,#259,.T.);
#380=ORIENTED_EDGE('',*,*,#231,.F.);
#381=ORIENTED_EDGE('',*,*,#238,.F.);
#382=ORIENTED_EDGE('',*,*,#266,.F.);
#383=ORIENTED_EDGE('',*,*,#228,.T.);
#384=ORIENTED_EDGE('',*,*,#235,.F.);
#385=ORIENTED_EDGE('',*,*,#270,.F.);
#386=CYLINDRICAL_SURFACE('',#426,3.202);
#387=CYLINDRICAL_SURFACE('',#441,3.202);
#388=CYLINDRICAL_SURFACE('',#446,1.67);
#389=CYLINDRICAL_SURFACE('',#455,2.70211150548757);
#390=CYLINDRICAL_SURFACE('',#458,0.999999999999996);
#391=ADVANCED_FACE('',(#33),#386,.F.);
#392=ADVANCED_FACE('',(#34),#17,.F.);
#393=ADVANCED_FACE('',(#35),#18,.F.);
#394=ADVANCED_FACE('',(#36),#19,.T.);
#395=ADVANCED_FACE('',(#37),#20,.T.);
#396=ADVANCED_FACE('',(#38),#21,.T.);
#397=ADVANCED_FACE('',(#39,#15),#22,.F.);
#398=ADVANCED_FACE('',(#40),#23,.F.);
#399=ADVANCED_FACE('',(#41),#387,.F.);
#400=ADVANCED_FACE('',(#42),#24,.F.);
#401=ADVANCED_FACE('',(#43),#388,.T.);
#402=ADVANCED_FACE('',(#44),#25,.T.);
#403=ADVANCED_FACE('',(#45),#26,.F.);
#404=ADVANCED_FACE('',(#46,#16),#27,.F.);
#405=ADVANCED_FACE('',(#47),#28,.T.);
#406=ADVANCED_FACE('',(#48),#389,.T.);
#407=ADVANCED_FACE('',(#49),#29,.F.);
#408=ADVANCED_FACE('',(#50),#30,.T.);
#409=ADVANCED_FACE('',(#51),#390,.F.);
#410=ADVANCED_FACE('',(#52),#31,.T.);
#411=ADVANCED_FACE('',(#53),#32,.T.);
#412=CLOSED_SHELL('',(#391,#392,#393,#394,#395,#396,#397,#398,#399,#400,
#401,#402,#403,#404,#405,#406,#407,#408,#409,#410,#411));
#413=DERIVED_UNIT_ELEMENT(#415,1.);
#414=DERIVED_UNIT_ELEMENT(#698,-3.);
#415=(
MASS_UNIT()
NAMED_UNIT(*)
SI_UNIT(.KILO.,.GRAM.)
);
#416=DERIVED_UNIT((#413,#414));
#417=MEASURE_REPRESENTATION_ITEM('density measure',
POSITIVE_RATIO_MEASURE(7850.),#416);
#418=PROPERTY_DEFINITION_REPRESENTATION(#423,#420);
#419=PROPERTY_DEFINITION_REPRESENTATION(#424,#421);
#420=REPRESENTATION('material name',(#422),#695);
#421=REPRESENTATION('density',(#417),#695);
#422=DESCRIPTIVE_REPRESENTATION_ITEM('Steel','Steel');
#423=PROPERTY_DEFINITION('material property','material name',#705);
#424=PROPERTY_DEFINITION('material property','density of part',#705);
#425=AXIS2_PLACEMENT_3D('',#576,#461,#462);
#426=AXIS2_PLACEMENT_3D('',#577,#463,#464);
#427=AXIS2_PLACEMENT_3D('',#582,#466,#467);
#428=AXIS2_PLACEMENT_3D('',#586,#469,#470);
#429=AXIS2_PLACEMENT_3D('',#589,#472,#473);
#430=AXIS2_PLACEMENT_3D('',#590,#474,#475);
#431=AXIS2_PLACEMENT_3D('',#596,#479,#480);
#432=AXIS2_PLACEMENT_3D('',#602,#484,#485);
#433=AXIS2_PLACEMENT_3D('',#608,#489,#490);
#434=AXIS2_PLACEMENT_3D('',#620,#497,#498);
#435=AXIS2_PLACEMENT_3D('',#622,#499,#500);
#436=AXIS2_PLACEMENT_3D('',#626,#503,#504);
#437=AXIS2_PLACEMENT_3D('',#629,#505,#506);
#438=AXIS2_PLACEMENT_3D('',#632,#508,#509);
#439=AXIS2_PLACEMENT_3D('',#635,#511,#512);
#440=AXIS2_PLACEMENT_3D('',#636,#513,#514);
#441=AXIS2_PLACEMENT_3D('',#645,#519,#520);
#442=AXIS2_PLACEMENT_3D('',#649,#522,#523);
#443=AXIS2_PLACEMENT_3D('',#651,#524,#525);
#444=AXIS2_PLACEMENT_3D('',#654,#527,#528);
#445=AXIS2_PLACEMENT_3D('',#655,#529,#530);
#446=AXIS2_PLACEMENT_3D('',#658,#533,#534);
#447=AXIS2_PLACEMENT_3D('',#661,#536,#537);
#448=AXIS2_PLACEMENT_3D('',#663,#538,#539);
#449=AXIS2_PLACEMENT_3D('',#665,#541,#542);
#450=AXIS2_PLACEMENT_3D('',#669,#545,#546);
#451=AXIS2_PLACEMENT_3D('',#673,#549,#550);
#452=AXIS2_PLACEMENT_3D('',#675,#551,#552);
#453=AXIS2_PLACEMENT_3D('',#678,#554,#555);
#454=AXIS2_PLACEMENT_3D('',#679,#556,#557);
#455=AXIS2_PLACEMENT_3D('',#684,#561,#562);
#456=AXIS2_PLACEMENT_3D('',#685,#563,#564);
#457=AXIS2_PLACEMENT_3D('',#687,#566,#567);
#458=AXIS2_PLACEMENT_3D('',#689,#569,#570);
#459=AXIS2_PLACEMENT_3D('',#691,#572,#573);
#460=AXIS2_PLACEMENT_3D('',#692,#574,#575);
#461=DIRECTION('axis',(0.,0.,1.));
#462=DIRECTION('refdir',(1.,0.,0.));
#463=DIRECTION('center_axis',(0.,0.,-1.));
#464=DIRECTION('ref_axis',(1.,0.,0.));
#465=DIRECTION('',(0.,0.,-1.));
#466=DIRECTION('center_axis',(0.,0.,1.));
#467=DIRECTION('ref_axis',(1.,0.,0.));
#468=DIRECTION('',(0.,0.,-1.));
#469=DIRECTION('center_axis',(0.,0.,1.));
#470=DIRECTION('ref_axis',(1.,0.,0.));
#471=DIRECTION('',(0.,0.,-1.));
#472=DIRECTION('center_axis',(0.,0.,-1.));
#473=DIRECTION('ref_axis',(1.,0.,0.));
#474=DIRECTION('center_axis',(1.,0.,0.));
#475=DIRECTION('ref_axis',(0.,-1.,0.));
#476=DIRECTION('',(0.,-1.,0.));
#477=DIRECTION('',(0.,0.,-1.));
#478=DIRECTION('',(0.,1.,0.));
#479=DIRECTION('center_axis',(0.999999999958787,-9.07886319559054E-6,0.));
#480=DIRECTION('ref_axis',(-9.07886319559054E-6,-0.999999999958787,0.));
#481=DIRECTION('',(0.,0.,1.));
#482=DIRECTION('',(9.07886319559054E-6,0.999999999958787,0.));
#483=DIRECTION('',(-9.07886319559054E-6,-0.999999999958787,0.));
#484=DIRECTION('center_axis',(0.,0.,1.));
#485=DIRECTION('ref_axis',(-1.,1.22464679914735E-16,0.));
#486=DIRECTION('',(-1.,1.22464679914735E-16,0.));
#487=DIRECTION('',(-1.22464679914735E-16,-1.,0.));
#488=DIRECTION('',(1.,-1.22464679914735E-16,0.));
#489=DIRECTION('center_axis',(-1.22464679914735E-16,-1.,0.));
#490=DIRECTION('ref_axis',(0.,0.,1.));
#491=DIRECTION('',(1.,-1.22464679914735E-16,0.));
#492=DIRECTION('',(-2.54984518909357E-33,3.12265974914472E-49,1.));
#493=DIRECTION('',(-1.,1.22464679914735E-16,0.));
#494=DIRECTION('',(0.,0.,-1.));
#495=DIRECTION('',(1.,-1.22464679914735E-16,0.));
#496=DIRECTION('',(0.,0.,-1.));
#497=DIRECTION('center_axis',(0.,0.,-1.));
#498=DIRECTION('ref_axis',(1.,-1.22464679914735E-16,0.));
#499=DIRECTION('center_axis',(0.,0.,-1.));
#500=DIRECTION('ref_axis',(1.,0.,0.));
#501=DIRECTION('',(1.,-1.22464679914735E-16,0.));
#502=DIRECTION('',(-1.22464679914735E-16,-1.,0.));
#503=DIRECTION('center_axis',(0.,0.,1.));
#504=DIRECTION('ref_axis',(1.,0.,0.));
#505=DIRECTION('center_axis',(0.,0.,1.));
#506=DIRECTION('ref_axis',(0.,1.,0.));
#507=DIRECTION('',(-0.999235093820717,-0.0391053356602807,0.));
#508=DIRECTION('center_axis',(0.,0.,-1.));
#509=DIRECTION('ref_axis',(1.,0.,0.));
#510=DIRECTION('',(1.,-1.22464679914735E-16,0.));
#511=DIRECTION('center_axis',(0.,0.,-1.));
#512=DIRECTION('ref_axis',(0.,1.,0.));
#513=DIRECTION('center_axis',(0.999999999958787,-9.07886319559054E-6,0.));
#514=DIRECTION('ref_axis',(-9.07886319559054E-6,-0.999999999958787,0.));
#515=DIRECTION('',(0.,0.,1.));
#516=DIRECTION('',(-9.07886319559054E-6,-0.999999999958787,0.));
#517=DIRECTION('',(0.,0.,-1.));
#518=DIRECTION('',(-9.07886319559054E-6,-0.999999999958787,0.));
#519=DIRECTION('center_axis',(0.,0.,-1.));
#520=DIRECTION('ref_axis',(1.,0.,0.));
#521=DIRECTION('',(0.,0.,-1.));
#522=DIRECTION('center_axis',(0.,0.,1.));
#523=DIRECTION('ref_axis',(1.,0.,0.));
#524=DIRECTION('center_axis',(0.,0.,-1.));
#525=DIRECTION('ref_axis',(1.,0.,0.));
#526=DIRECTION('',(0.,0.,-1.));
#527=DIRECTION('center_axis',(0.,0.,-1.));
#528=DIRECTION('ref_axis',(1.,0.,0.));
#529=DIRECTION('center_axis',(1.,0.,0.));
#530=DIRECTION('ref_axis',(0.,-1.,0.));
#531=DIRECTION('',(0.,-1.,0.));
#532=DIRECTION('',(0.,-1.,0.));
#533=DIRECTION('center_axis',(0.,0.,-1.));
#534=DIRECTION('ref_axis',(1.,0.,0.));
#535=DIRECTION('',(0.,0.,-1.));
#536=DIRECTION('center_axis',(0.,0.,1.));
#537=DIRECTION('ref_axis',(1.,0.,0.));
#538=DIRECTION('center_axis',(0.,0.,1.));
#539=DIRECTION('ref_axis',(1.,0.,0.));
#540=DIRECTION('',(0.,0.,1.));
#541=DIRECTION('center_axis',(0.,0.,1.));
#542=DIRECTION('ref_axis',(-1.,1.22464679914735E-16,0.));
#543=DIRECTION('',(-1.22464679914735E-16,-1.,0.));
#544=DIRECTION('',(-1.,1.22464679914735E-16,0.));
#545=DIRECTION('center_axis',(0.0391053356602807,-0.999235093820717,0.));
#546=DIRECTION('ref_axis',(-0.999235093820717,-0.0391053356602807,0.));
#547=DIRECTION('',(0.,0.,1.));
#548=DIRECTION('',(0.999235093820717,0.0391053356602807,0.));
#549=DIRECTION('center_axis',(0.,0.,-1.));
#550=DIRECTION('ref_axis',(-1.,0.,0.));
#551=DIRECTION('center_axis',(0.,0.,-1.));
#552=DIRECTION('ref_axis',(0.,1.,0.));
#553=DIRECTION('',(-1.,1.22464679914735E-16,0.));
#554=DIRECTION('center_axis',(0.,0.,1.));
#555=DIRECTION('ref_axis',(0.,1.,0.));
#556=DIRECTION('center_axis',(-1.22464679914735E-16,-1.,0.));
#557=DIRECTION('ref_axis',(0.,0.,1.));
#558=DIRECTION('',(0.,0.,1.));
#559=DIRECTION('',(-1.,1.22464679914735E-16,0.));
#560=DIRECTION('',(0.,0.,-1.));
#561=DIRECTION('center_axis',(0.,0.,-1.));
#562=DIRECTION('ref_axis',(-0.536996869428917,-0.843584235404825,0.));
#563=DIRECTION('center_axis',(-1.22464679914735E-16,-1.,0.));
#564=DIRECTION('ref_axis',(-1.,1.22464679914735E-16,0.));
#565=DIRECTION('',(-2.54984518909357E-33,3.12265974914472E-49,1.));
#566=DIRECTION('center_axis',(0.,0.,-1.));
#567=DIRECTION('ref_axis',(1.,-1.22464679914735E-16,0.));
#568=DIRECTION('',(-1.22464679914735E-16,-1.,0.));
#569=DIRECTION('center_axis',(0.,0.,-1.));
#570=DIRECTION('ref_axis',(0.,1.,0.));
#571=DIRECTION('',(0.,0.,1.));
#572=DIRECTION('center_axis',(1.,-1.22464679914735E-16,2.54984518909357E-33));
#573=DIRECTION('ref_axis',(-2.54984518909357E-33,3.12265974914472E-49,1.));
#574=DIRECTION('center_axis',(-1.,1.22464679914735E-16,0.));
#575=DIRECTION('ref_axis',(0.,0.,-1.));
#576=CARTESIAN_POINT('',(0.,0.,0.));
#577=CARTESIAN_POINT('Origin',(-0.0100000004749722,45.5162807093282,-69.61));
#578=CARTESIAN_POINT('',(2.98077083396639,46.66,-69.61));
#579=CARTESIAN_POINT('',(2.98077083396639,46.66,-95.01));
#580=CARTESIAN_POINT('',(2.98077083396639,46.66,-69.61));
#581=CARTESIAN_POINT('',(2.59999994188547,47.3711942655023,-69.61));
#582=CARTESIAN_POINT('Origin',(-0.0100000004749722,45.5162807093282,-69.61));
#583=CARTESIAN_POINT('',(2.59999994188547,47.3711942655023,-96.68));
#584=CARTESIAN_POINT('',(2.59999994188547,47.3711942655023,-69.61));
#585=CARTESIAN_POINT('',(3.14845414910344,44.99,-96.68));
#586=CARTESIAN_POINT('Origin',(-0.0100000004749722,45.5162807093282,-96.68));
#587=CARTESIAN_POINT('',(3.14845414910343,44.99,-95.01));
#588=CARTESIAN_POINT('',(3.14845414910343,44.99,-69.61));
#589=CARTESIAN_POINT('Origin',(-0.0100000004749722,45.5162807093282,-95.01));
#590=CARTESIAN_POINT('Origin',(2.59999994188547,48.2999989204109,-69.61));
#591=CARTESIAN_POINT('',(2.59999994188547,48.2999989204109,-69.61));
#592=CARTESIAN_POINT('',(2.59999994188547,48.2999989204109,-69.61));
#593=CARTESIAN_POINT('',(2.59999994188547,48.2999989204109,-96.68));
#594=CARTESIAN_POINT('',(2.59999994188547,48.2999989204109,-69.61));
#595=CARTESIAN_POINT('',(2.59999994188547,48.3149994602054,-96.68));
#596=CARTESIAN_POINT('Origin',(2.60000012349337,48.3200022950768,-69.61));
#597=CARTESIAN_POINT('',(2.60000005443066,48.3123953170517,-96.68));
#598=CARTESIAN_POINT('',(2.60000005443066,48.3123953170517,-69.61));
#599=CARTESIAN_POINT('',(2.60000005443066,48.3123953170517,0.));
#600=CARTESIAN_POINT('',(2.60000016876971,48.324989299621,-96.68));
#601=CARTESIAN_POINT('',(2.60000012349337,48.3200022950768,-69.61));
#602=CARTESIAN_POINT('Origin',(63.,46.66,-95.01));
#603=CARTESIAN_POINT('',(63.,44.99,-95.01));
#604=CARTESIAN_POINT('',(63.,44.99,-95.01));
#605=CARTESIAN_POINT('',(63.,46.66,-95.01));
#606=CARTESIAN_POINT('',(63.,46.66,-95.01));
#607=CARTESIAN_POINT('',(47.665,46.66,-95.01));
#608=CARTESIAN_POINT('Origin',(32.33,44.99,-48.34));
#609=CARTESIAN_POINT('',(64.67,44.99,-96.68));
#610=CARTESIAN_POINT('',(-0.0100000000000033,44.99,-96.68));
#611=CARTESIAN_POINT('',(64.67,44.99,0.));
#612=CARTESIAN_POINT('',(64.67,44.99,-96.68));
#613=CARTESIAN_POINT('',(3.14845414910343,44.99,0.));
#614=CARTESIAN_POINT('',(64.67,44.99,0.));
#615=CARTESIAN_POINT('',(3.14845414910343,44.99,-1.67));
#616=CARTESIAN_POINT('',(3.14845414910343,44.99,0.));
#617=CARTESIAN_POINT('',(63.,44.99,-1.67));
#618=CARTESIAN_POINT('',(13.25,44.99,-1.67));
#619=CARTESIAN_POINT('',(63.,44.99,-1.67));
#620=CARTESIAN_POINT('Origin',(-0.0100000000000033,48.33,-96.68));
#621=CARTESIAN_POINT('',(2.84184652677523,48.33,-96.68));
#622=CARTESIAN_POINT('Origin',(2.84184652677523,46.66,-96.68));
#623=CARTESIAN_POINT('',(64.67,48.33,-96.68));
#624=CARTESIAN_POINT('',(-0.0100000000000033,48.33,-96.68));
#625=CARTESIAN_POINT('',(64.67,48.33,-96.68));
#626=CARTESIAN_POINT('Origin',(-0.0100000004749745,48.2183922148157,-69.61));
#627=CARTESIAN_POINT('',(-0.0100000004749745,48.2183922148157,-69.61));
#628=CARTESIAN_POINT('',(2.43812433710133,46.66,-69.61));
#629=CARTESIAN_POINT('Origin',(-0.0100000004749745,45.5162807093282,-69.61));
#630=CARTESIAN_POINT('',(2.71133461145908,48.3248923808945,-69.61));
#631=CARTESIAN_POINT('',(1.35066730549205,48.2716422978551,-69.61));
#632=CARTESIAN_POINT('Origin',(2.84184652677523,46.66,-69.61));
#633=CARTESIAN_POINT('',(16.1602662894901,46.66,-69.61));
#634=CARTESIAN_POINT('',(-0.0100000004749746,44.5162807093282,-69.61));
#635=CARTESIAN_POINT('Origin',(-0.0100000004749745,45.5162807093282,-69.61));
#636=CARTESIAN_POINT('Origin',(2.60000012349337,48.3200022950768,0.));
#637=CARTESIAN_POINT('',(2.60000005443066,48.3123953170517,-27.07));
#638=CARTESIAN_POINT('',(2.60000005443066,48.3123953170517,0.));
#639=CARTESIAN_POINT('',(2.60000005443066,48.3123953170517,0.));
#640=CARTESIAN_POINT('',(2.59999994188547,48.2999989204109,-27.07));
#641=CARTESIAN_POINT('',(2.60000012349337,48.3200022950768,-27.07));
#642=CARTESIAN_POINT('',(2.59999994188547,48.2999989204109,0.));
#643=CARTESIAN_POINT('',(2.59999994188547,48.2999989204109,0.));
#644=CARTESIAN_POINT('',(2.60000017143535,48.3252829100567,0.));
#645=CARTESIAN_POINT('Origin',(-0.0100000004749722,45.5162807093282,0.));
#646=CARTESIAN_POINT('',(2.98077083396639,46.66,-1.67));
#647=CARTESIAN_POINT('',(2.98077083396639,46.66,-27.07));
#648=CARTESIAN_POINT('',(2.98077083396639,46.66,0.));
#649=CARTESIAN_POINT('Origin',(-0.0100000004749722,45.5162807093282,-1.67));
#650=CARTESIAN_POINT('',(2.59999994188547,47.3711942655023,0.));
#651=CARTESIAN_POINT('Origin',(-0.0100000004749722,45.5162807093282,0.));
#652=CARTESIAN_POINT('',(2.59999994188547,47.3711942655023,-27.07));
#653=CARTESIAN_POINT('',(2.59999994188547,47.3711942655023,0.));
#654=CARTESIAN_POINT('Origin',(-0.0100000004749722,45.5162807093282,-27.07));
#655=CARTESIAN_POINT('Origin',(2.59999994188547,48.2999989204109,0.));
#656=CARTESIAN_POINT('',(2.59999994188547,48.3149994602054,0.));
#657=CARTESIAN_POINT('',(2.59999994188547,48.2999989204109,-27.07));
#658=CARTESIAN_POINT('Origin',(2.84184652677523,46.66,0.));
#659=CARTESIAN_POINT('',(2.71133461145908,48.3248923808945,-27.07));
#660=CARTESIAN_POINT('',(2.71133461145908,48.3248923808945,-26.67));
#661=CARTESIAN_POINT('Origin',(2.84184652677523,46.66,-27.07));
#662=CARTESIAN_POINT('',(2.84184652677523,48.33,0.));
#663=CARTESIAN_POINT('Origin',(2.84184652677523,46.66,0.));
#664=CARTESIAN_POINT('',(2.84184652677523,48.33,0.));
#665=CARTESIAN_POINT('Origin',(64.67,48.33,0.));
#666=CARTESIAN_POINT('',(64.67,48.33,0.));
#667=CARTESIAN_POINT('',(64.67,48.33,0.));
#668=CARTESIAN_POINT('',(64.67,48.33,0.));
#669=CARTESIAN_POINT('Origin',(2.71133461145908,48.3248923808945,-26.67));
#670=CARTESIAN_POINT('',(-0.0100000004749745,48.2183922148157,-27.07));
#671=CARTESIAN_POINT('',(-0.0100000000000033,48.2183922148157,-48.34));
#672=CARTESIAN_POINT('',(1.31741194132093,48.2703408401837,-27.07));
#673=CARTESIAN_POINT('Origin',(-0.0100000004749745,46.5162807093282,-27.07));
#674=CARTESIAN_POINT('',(2.43812433710133,46.66,-27.07));
#675=CARTESIAN_POINT('Origin',(-0.0100000004749745,45.5162807093282,-27.07));
#676=CARTESIAN_POINT('',(16.1602662894901,46.66,-27.07));
#677=CARTESIAN_POINT('',(-0.0100000004749746,44.5162807093282,-27.07));
#678=CARTESIAN_POINT('Origin',(-0.0100000004749745,45.5162807093282,-27.07));
#679=CARTESIAN_POINT('Origin',(32.33,46.66,-48.34));
#680=CARTESIAN_POINT('',(63.,46.66,-1.67));
#681=CARTESIAN_POINT('',(63.,46.66,-25.005));
#682=CARTESIAN_POINT('',(16.995,46.66,-1.67));
#683=CARTESIAN_POINT('',(2.43812433710133,46.66,-48.34));
#684=CARTESIAN_POINT('Origin',(-0.0100000004749745,45.5162807093282,-48.34));
#685=CARTESIAN_POINT('Origin',(32.33,48.33,-48.34));
#686=CARTESIAN_POINT('',(64.67,48.33,-96.68));
#687=CARTESIAN_POINT('Origin',(1.66,46.66,-1.67));
#688=CARTESIAN_POINT('',(63.,46.66,-1.67));
#689=CARTESIAN_POINT('Origin',(-0.0100000004749745,45.5162807093282,-48.34));
#690=CARTESIAN_POINT('',(-0.0100000004749746,44.5162807093282,-48.34));
#691=CARTESIAN_POINT('Origin',(64.67,48.33,-96.68));
#692=CARTESIAN_POINT('Origin',(63.,46.66,-1.67));
#693=UNCERTAINTY_MEASURE_WITH_UNIT(LENGTH_MEASURE(0.01),#697,
'DISTANCE_ACCURACY_VALUE',
'Maximum model space distance between geometric entities at asserted c
onnectivities');
#694=UNCERTAINTY_MEASURE_WITH_UNIT(LENGTH_MEASURE(0.01),#697,
'DISTANCE_ACCURACY_VALUE',
'Maximum model space distance between geometric entities at asserted c
onnectivities');
#695=(
GEOMETRIC_REPRESENTATION_CONTEXT(3)
GLOBAL_UNCERTAINTY_ASSIGNED_CONTEXT((#693))
GLOBAL_UNIT_ASSIGNED_CONTEXT((#697,#699,#700))
REPRESENTATION_CONTEXT('','3D')
);
#696=(
GEOMETRIC_REPRESENTATION_CONTEXT(3)
GLOBAL_UNCERTAINTY_ASSIGNED_CONTEXT((#694))
GLOBAL_UNIT_ASSIGNED_CONTEXT((#697,#699,#700))
REPRESENTATION_CONTEXT('','3D')
);
#697=(
LENGTH_UNIT()
NAMED_UNIT(*)
SI_UNIT(.MILLI.,.METRE.)
);
#698=(
LENGTH_UNIT()
NAMED_UNIT(*)
SI_UNIT($,.METRE.)
);
#699=(
NAMED_UNIT(*)
PLANE_ANGLE_UNIT()
SI_UNIT($,.RADIAN.)
);
#700=(
NAMED_UNIT(*)
SI_UNIT($,.STERADIAN.)
SOLID_ANGLE_UNIT()
);
#701=SHAPE_DEFINITION_REPRESENTATION(#702,#703);
#702=PRODUCT_DEFINITION_SHAPE('',$,#705);
#703=SHAPE_REPRESENTATION('',(#425),#695);
#704=PRODUCT_DEFINITION_CONTEXT('part definition',#709,'design');
#705=PRODUCT_DEFINITION('Krabi\X2\010D\X0\ka na karty 3',
'Krabi\X2\010D\X0\ka na karty 3 v11',#706,#704);
#706=PRODUCT_DEFINITION_FORMATION('',$,#711);
#707=PRODUCT_RELATED_PRODUCT_CATEGORY('Krabi\X2\010D\X0\ka na karty 3 
v11','Krabi\X2\010D\X0\ka na karty 3 v11',(#711));
#708=APPLICATION_PROTOCOL_DEFINITION('international standard',
'automotive_design',2009,#709);
#709=APPLICATION_CONTEXT(
'Core Data for Automotive Mechanical Design Process');
#710=PRODUCT_CONTEXT('part definition',#709,'mechanical');
#711=PRODUCT('Krabi\X2\010D\X0\ka na karty 3',
'Krabi\X2\010D\X0\ka na karty 3 v11',$,(#710));
#712=PRESENTATION_STYLE_ASSIGNMENT((#713));
#713=SURFACE_STYLE_USAGE(.BOTH.,#714);
#714=SURFACE_SIDE_STYLE('',(#715));
#715=SURFACE_STYLE_FILL_AREA(#716);
#716=FILL_AREA_STYLE('Steel - Satin',(#717));
#717=FILL_AREA_STYLE_COLOUR('Steel - Satin',#718);
#718=COLOUR_RGB('Steel - Satin',0.627450980392157,0.627450980392157,0.627450980392157);
ENDSEC;
END-ISO-10303-21;
