ISO-10303-21;
HEADER;
/* Generated by software containing ST-Developer
 * from STEP Tools, Inc. (www.steptools.com) 
 */

FILE_DESCRIPTION(
/* description */ (''),
/* implementation_level */ '2;1');

FILE_NAME(
/* name */ '',
/* time_stamp */ '2026-06-08T11:26:50+02:00',
/* author */ (''),
/* organization */ (''),
/* preprocessor_version */ 'ST-DEVELOPER v20.1',
/* originating_system */ 'Autodesk Translation Framework v15.8.0.0',
/* authorisation */ '');

FILE_SCHEMA (('AUTOMOTIVE_DESIGN { 1 0 10303 214 3 1 1 }'));
ENDSEC;

DATA;
#10=MECHANICAL_DESIGN_GEOMETRIC_PRESENTATION_REPRESENTATION('',(#13),#1003);
#11=SHAPE_REPRESENTATION_RELATIONSHIP('SRR','None',#1010,#12);
#12=ADVANCED_BREP_SHAPE_REPRESENTATION('',(#14),#1002);
#13=STYLED_ITEM('',(#1019),#14);
#14=MANIFOLD_SOLID_BREP('Body2',#589);
#15=CYLINDRICAL_SURFACE('',#618,3.202);
#16=CYLINDRICAL_SURFACE('',#624,5.);
#17=CYLINDRICAL_SURFACE('',#627,5.);
#18=CYLINDRICAL_SURFACE('',#630,5.);
#19=CYLINDRICAL_SURFACE('',#632,5.);
#20=CYLINDRICAL_SURFACE('',#635,6.5);
#21=CYLINDRICAL_SURFACE('',#638,6.5);
#22=CYLINDRICAL_SURFACE('',#641,6.5);
#23=CYLINDRICAL_SURFACE('',#643,6.5);
#24=CIRCLE('',#607,6.5);
#25=CIRCLE('',#608,5.);
#26=CIRCLE('',#609,5.);
#27=CIRCLE('',#610,6.5);
#28=CIRCLE('',#611,3.202);
#29=CIRCLE('',#613,3.202);
#30=CIRCLE('',#614,6.5);
#31=CIRCLE('',#615,5.);
#32=CIRCLE('',#616,5.);
#33=CIRCLE('',#617,6.5);
#34=CIRCLE('',#619,3.202);
#35=CIRCLE('',#620,3.202);
#36=CIRCLE('',#625,5.);
#37=CIRCLE('',#628,5.);
#38=CIRCLE('',#631,5.);
#39=CIRCLE('',#633,5.);
#40=CIRCLE('',#636,6.5);
#41=CIRCLE('',#639,6.5);
#42=CIRCLE('',#642,6.5);
#43=CIRCLE('',#644,6.5);
#44=ELLIPSE('',#604,22.5,15.);
#45=ELLIPSE('',#605,22.5,15.);
#46=(
BOUNDED_SURFACE()
B_SPLINE_SURFACE(1,2,((#830,#831,#832,#833,#834),(#835,#836,#837,#838,#839)),
 .UNSPECIFIED.,.F.,.F.,.F.)
B_SPLINE_SURFACE_WITH_KNOTS((2,2),(3,2,3),(0.,4.14844444444445),(-3.14159265358979,
-1.79015093768043,-0.438709221771062),.UNSPECIFIED.)
GEOMETRIC_REPRESENTATION_ITEM()
RATIONAL_B_SPLINE_SURFACE(((1.,0.780256286128052,1.,0.780256286128052,1.),
(1.,0.780256286128052,1.,0.780256286128052,1.)))
REPRESENTATION_ITEM('')
SURFACE()
);
#47=FACE_OUTER_BOUND('',#77,.T.);
#48=FACE_OUTER_BOUND('',#78,.T.);
#49=FACE_OUTER_BOUND('',#79,.T.);
#50=FACE_OUTER_BOUND('',#80,.T.);
#51=FACE_OUTER_BOUND('',#81,.T.);
#52=FACE_OUTER_BOUND('',#82,.T.);
#53=FACE_OUTER_BOUND('',#83,.T.);
#54=FACE_OUTER_BOUND('',#84,.T.);
#55=FACE_OUTER_BOUND('',#85,.T.);
#56=FACE_OUTER_BOUND('',#86,.T.);
#57=FACE_OUTER_BOUND('',#87,.T.);
#58=FACE_OUTER_BOUND('',#88,.T.);
#59=FACE_OUTER_BOUND('',#89,.T.);
#60=FACE_OUTER_BOUND('',#90,.T.);
#61=FACE_OUTER_BOUND('',#91,.T.);
#62=FACE_OUTER_BOUND('',#92,.T.);
#63=FACE_OUTER_BOUND('',#93,.T.);
#64=FACE_OUTER_BOUND('',#94,.T.);
#65=FACE_OUTER_BOUND('',#95,.T.);
#66=FACE_OUTER_BOUND('',#96,.T.);
#67=FACE_OUTER_BOUND('',#97,.T.);
#68=FACE_OUTER_BOUND('',#98,.T.);
#69=FACE_OUTER_BOUND('',#99,.T.);
#70=FACE_OUTER_BOUND('',#100,.T.);
#71=FACE_OUTER_BOUND('',#101,.T.);
#72=FACE_OUTER_BOUND('',#102,.T.);
#73=FACE_OUTER_BOUND('',#103,.T.);
#74=FACE_OUTER_BOUND('',#104,.T.);
#75=FACE_OUTER_BOUND('',#105,.T.);
#76=FACE_OUTER_BOUND('',#106,.T.);
#77=EDGE_LOOP('',(#371,#372,#373,#374));
#78=EDGE_LOOP('',(#375,#376,#377,#378));
#79=EDGE_LOOP('',(#379,#380,#381,#382,#383,#384,#385,#386,#387,#388,#389,
#390,#391,#392));
#80=EDGE_LOOP('',(#393,#394,#395,#396,#397,#398,#399,#400,#401,#402,#403,
#404,#405,#406));
#81=EDGE_LOOP('',(#407,#408,#409,#410,#411,#412,#413,#414));
#82=EDGE_LOOP('',(#415,#416,#417,#418));
#83=EDGE_LOOP('',(#419,#420,#421,#422));
#84=EDGE_LOOP('',(#423,#424,#425,#426));
#85=EDGE_LOOP('',(#427,#428,#429,#430));
#86=EDGE_LOOP('',(#431,#432,#433,#434,#435,#436,#437,#438,#439,#440,#441,
#442));
#87=EDGE_LOOP('',(#443,#444,#445,#446));
#88=EDGE_LOOP('',(#447,#448,#449,#450));
#89=EDGE_LOOP('',(#451,#452,#453,#454));
#90=EDGE_LOOP('',(#455,#456,#457,#458));
#91=EDGE_LOOP('',(#459,#460,#461,#462));
#92=EDGE_LOOP('',(#463,#464,#465,#466));
#93=EDGE_LOOP('',(#467,#468,#469,#470,#471,#472,#473,#474));
#94=EDGE_LOOP('',(#475,#476,#477,#478));
#95=EDGE_LOOP('',(#479,#480,#481,#482));
#96=EDGE_LOOP('',(#483,#484,#485,#486));
#97=EDGE_LOOP('',(#487,#488,#489,#490));
#98=EDGE_LOOP('',(#491,#492,#493,#494));
#99=EDGE_LOOP('',(#495,#496,#497,#498));
#100=EDGE_LOOP('',(#499,#500,#501,#502,#503,#504));
#101=EDGE_LOOP('',(#505,#506,#507,#508,#509,#510));
#102=EDGE_LOOP('',(#511,#512,#513,#514));
#103=EDGE_LOOP('',(#515,#516,#517,#518,#519,#520,#521,#522));
#104=EDGE_LOOP('',(#523,#524,#525,#526,#527,#528,#529,#530));
#105=EDGE_LOOP('',(#531,#532,#533,#534));
#106=EDGE_LOOP('',(#535,#536,#537,#538));
#107=LINE('',#824,#169);
#108=LINE('',#826,#170);
#109=LINE('',#828,#171);
#110=LINE('',#829,#172);
#111=LINE('',#843,#173);
#112=LINE('',#847,#174);
#113=LINE('',#849,#175);
#114=LINE('',#851,#176);
#115=LINE('',#855,#177);
#116=LINE('',#859,#178);
#117=LINE('',#863,#179);
#118=LINE('',#867,#180);
#119=LINE('',#873,#181);
#120=LINE('',#877,#182);
#121=LINE('',#881,#183);
#122=LINE('',#885,#184);
#123=LINE('',#889,#185);
#124=LINE('',#891,#186);
#125=LINE('',#892,#187);
#126=LINE('',#895,#188);
#127=LINE('',#899,#189);
#128=LINE('',#902,#190);
#129=LINE('',#905,#191);
#130=LINE('',#906,#192);
#131=LINE('',#909,#193);
#132=LINE('',#911,#194);
#133=LINE('',#912,#195);
#134=LINE('',#915,#196);
#135=LINE('',#917,#197);
#136=LINE('',#918,#198);
#137=LINE('',#923,#199);
#138=LINE('',#924,#200);
#139=LINE('',#926,#201);
#140=LINE('',#928,#202);
#141=LINE('',#929,#203);
#142=LINE('',#931,#204);
#143=LINE('',#933,#205);
#144=LINE('',#935,#206);
#145=LINE('',#937,#207);
#146=LINE('',#938,#208);
#147=LINE('',#942,#209);
#148=LINE('',#945,#210);
#149=LINE('',#946,#211);
#150=LINE('',#950,#212);
#151=LINE('',#954,#213);
#152=LINE('',#957,#214);
#153=LINE('',#958,#215);
#154=LINE('',#961,#216);
#155=LINE('',#964,#217);
#156=LINE('',#966,#218);
#157=LINE('',#968,#219);
#158=LINE('',#970,#220);
#159=LINE('',#972,#221);
#160=LINE('',#973,#222);
#161=LINE('',#978,#223);
#162=LINE('',#979,#224);
#163=LINE('',#985,#225);
#164=LINE('',#987,#226);
#165=LINE('',#989,#227);
#166=LINE('',#991,#228);
#167=LINE('',#993,#229);
#168=LINE('',#998,#230);
#169=VECTOR('',#658,10.);
#170=VECTOR('',#659,10.);
#171=VECTOR('',#660,10.);
#172=VECTOR('',#661,10.);
#173=VECTOR('',#664,10.);
#174=VECTOR('',#669,10.);
#175=VECTOR('',#670,10.);
#176=VECTOR('',#671,10.);
#177=VECTOR('',#674,10.);
#178=VECTOR('',#677,10.);
#179=VECTOR('',#680,10.);
#180=VECTOR('',#683,10.);
#181=VECTOR('',#690,10.);
#182=VECTOR('',#693,10.);
#183=VECTOR('',#696,10.);
#184=VECTOR('',#699,10.);
#185=VECTOR('',#702,10.);
#186=VECTOR('',#703,10.);
#187=VECTOR('',#704,10.);
#188=VECTOR('',#707,10.);
#189=VECTOR('',#710,10.);
#190=VECTOR('',#713,10.);
#191=VECTOR('',#716,10.);
#192=VECTOR('',#717,10.);
#193=VECTOR('',#720,10.);
#194=VECTOR('',#721,10.);
#195=VECTOR('',#722,10.);
#196=VECTOR('',#725,10.);
#197=VECTOR('',#726,10.);
#198=VECTOR('',#727,10.);
#199=VECTOR('',#732,10.);
#200=VECTOR('',#733,10.);
#201=VECTOR('',#736,10.);
#202=VECTOR('',#737,10.);
#203=VECTOR('',#738,10.);
#204=VECTOR('',#739,10.);
#205=VECTOR('',#740,10.);
#206=VECTOR('',#741,10.);
#207=VECTOR('',#742,10.);
#208=VECTOR('',#743,10.);
#209=VECTOR('',#748,10.);
#210=VECTOR('',#751,10.);
#211=VECTOR('',#752,10.);
#212=VECTOR('',#757,10.);
#213=VECTOR('',#762,10.);
#214=VECTOR('',#765,10.);
#215=VECTOR('',#766,10.);
#216=VECTOR('',#769,10.);
#217=VECTOR('',#772,10.);
#218=VECTOR('',#775,10.);
#219=VECTOR('',#776,10.);
#220=VECTOR('',#777,10.);
#221=VECTOR('',#778,10.);
#222=VECTOR('',#779,10.);
#223=VECTOR('',#786,10.);
#224=VECTOR('',#787,10.);
#225=VECTOR('',#796,10.);
#226=VECTOR('',#799,10.);
#227=VECTOR('',#802,10.);
#228=VECTOR('',#805,10.);
#229=VECTOR('',#808,10.);
#230=VECTOR('',#817,10.);
#231=VERTEX_POINT('',#822);
#232=VERTEX_POINT('',#823);
#233=VERTEX_POINT('',#825);
#234=VERTEX_POINT('',#827);
#235=VERTEX_POINT('',#840);
#236=VERTEX_POINT('',#842);
#237=VERTEX_POINT('',#846);
#238=VERTEX_POINT('',#848);
#239=VERTEX_POINT('',#850);
#240=VERTEX_POINT('',#852);
#241=VERTEX_POINT('',#854);
#242=VERTEX_POINT('',#856);
#243=VERTEX_POINT('',#858);
#244=VERTEX_POINT('',#860);
#245=VERTEX_POINT('',#862);
#246=VERTEX_POINT('',#864);
#247=VERTEX_POINT('',#866);
#248=VERTEX_POINT('',#870);
#249=VERTEX_POINT('',#872);
#250=VERTEX_POINT('',#874);
#251=VERTEX_POINT('',#876);
#252=VERTEX_POINT('',#878);
#253=VERTEX_POINT('',#880);
#254=VERTEX_POINT('',#882);
#255=VERTEX_POINT('',#884);
#256=VERTEX_POINT('',#886);
#257=VERTEX_POINT('',#888);
#258=VERTEX_POINT('',#890);
#259=VERTEX_POINT('',#894);
#260=VERTEX_POINT('',#896);
#261=VERTEX_POINT('',#898);
#262=VERTEX_POINT('',#900);
#263=VERTEX_POINT('',#904);
#264=VERTEX_POINT('',#908);
#265=VERTEX_POINT('',#910);
#266=VERTEX_POINT('',#914);
#267=VERTEX_POINT('',#916);
#268=VERTEX_POINT('',#920);
#269=VERTEX_POINT('',#921);
#270=VERTEX_POINT('',#927);
#271=VERTEX_POINT('',#930);
#272=VERTEX_POINT('',#932);
#273=VERTEX_POINT('',#934);
#274=VERTEX_POINT('',#936);
#275=VERTEX_POINT('',#940);
#276=VERTEX_POINT('',#944);
#277=VERTEX_POINT('',#948);
#278=VERTEX_POINT('',#952);
#279=VERTEX_POINT('',#956);
#280=VERTEX_POINT('',#960);
#281=VERTEX_POINT('',#962);
#282=VERTEX_POINT('',#967);
#283=VERTEX_POINT('',#969);
#284=VERTEX_POINT('',#971);
#285=VERTEX_POINT('',#977);
#286=VERTEX_POINT('',#983);
#287=EDGE_CURVE('',#231,#232,#107,.T.);
#288=EDGE_CURVE('',#233,#231,#108,.T.);
#289=EDGE_CURVE('',#234,#233,#109,.T.);
#290=EDGE_CURVE('',#232,#234,#110,.T.);
#291=EDGE_CURVE('',#235,#232,#44,.T.);
#292=EDGE_CURVE('',#235,#236,#111,.T.);
#293=EDGE_CURVE('',#231,#236,#45,.T.);
#294=EDGE_CURVE('',#236,#237,#112,.T.);
#295=EDGE_CURVE('',#237,#238,#113,.T.);
#296=EDGE_CURVE('',#239,#238,#114,.T.);
#297=EDGE_CURVE('',#240,#239,#24,.T.);
#298=EDGE_CURVE('',#240,#241,#115,.T.);
#299=EDGE_CURVE('',#242,#241,#25,.T.);
#300=EDGE_CURVE('',#242,#243,#116,.T.);
#301=EDGE_CURVE('',#244,#243,#26,.T.);
#302=EDGE_CURVE('',#244,#245,#117,.T.);
#303=EDGE_CURVE('',#246,#245,#27,.T.);
#304=EDGE_CURVE('',#247,#246,#118,.T.);
#305=EDGE_CURVE('',#247,#233,#28,.T.);
#306=EDGE_CURVE('',#234,#248,#29,.T.);
#307=EDGE_CURVE('',#249,#248,#119,.T.);
#308=EDGE_CURVE('',#250,#249,#30,.T.);
#309=EDGE_CURVE('',#250,#251,#120,.T.);
#310=EDGE_CURVE('',#252,#251,#31,.T.);
#311=EDGE_CURVE('',#252,#253,#121,.T.);
#312=EDGE_CURVE('',#254,#253,#32,.T.);
#313=EDGE_CURVE('',#254,#255,#122,.T.);
#314=EDGE_CURVE('',#256,#255,#33,.T.);
#315=EDGE_CURVE('',#257,#256,#123,.T.);
#316=EDGE_CURVE('',#258,#257,#124,.T.);
#317=EDGE_CURVE('',#258,#235,#125,.T.);
#318=EDGE_CURVE('',#259,#247,#126,.T.);
#319=EDGE_CURVE('',#260,#259,#34,.T.);
#320=EDGE_CURVE('',#261,#260,#127,.T.);
#321=EDGE_CURVE('',#262,#261,#35,.T.);
#322=EDGE_CURVE('',#248,#262,#128,.T.);
#323=EDGE_CURVE('',#263,#246,#129,.T.);
#324=EDGE_CURVE('',#263,#259,#130,.T.);
#325=EDGE_CURVE('',#264,#260,#131,.T.);
#326=EDGE_CURVE('',#265,#264,#132,.T.);
#327=EDGE_CURVE('',#261,#265,#133,.T.);
#328=EDGE_CURVE('',#264,#266,#134,.T.);
#329=EDGE_CURVE('',#266,#267,#135,.T.);
#330=EDGE_CURVE('',#265,#267,#136,.T.);
#331=EDGE_CURVE('',#268,#269,#36,.T.);
#332=EDGE_CURVE('',#269,#252,#137,.T.);
#333=EDGE_CURVE('',#251,#268,#138,.T.);
#334=EDGE_CURVE('',#267,#269,#139,.T.);
#335=EDGE_CURVE('',#270,#266,#140,.T.);
#336=EDGE_CURVE('',#243,#270,#141,.T.);
#337=EDGE_CURVE('',#271,#242,#142,.T.);
#338=EDGE_CURVE('',#272,#271,#143,.T.);
#339=EDGE_CURVE('',#273,#272,#144,.T.);
#340=EDGE_CURVE('',#274,#273,#145,.T.);
#341=EDGE_CURVE('',#253,#274,#146,.T.);
#342=EDGE_CURVE('',#274,#275,#37,.T.);
#343=EDGE_CURVE('',#275,#254,#147,.T.);
#344=EDGE_CURVE('',#276,#275,#148,.T.);
#345=EDGE_CURVE('',#255,#276,#149,.T.);
#346=EDGE_CURVE('',#277,#271,#38,.T.);
#347=EDGE_CURVE('',#241,#277,#150,.T.);
#348=EDGE_CURVE('',#270,#278,#39,.T.);
#349=EDGE_CURVE('',#278,#244,#151,.T.);
#350=EDGE_CURVE('',#279,#278,#152,.T.);
#351=EDGE_CURVE('',#245,#279,#153,.T.);
#352=EDGE_CURVE('',#239,#280,#154,.T.);
#353=EDGE_CURVE('',#280,#281,#40,.T.);
#354=EDGE_CURVE('',#281,#240,#155,.T.);
#355=EDGE_CURVE('',#238,#257,#156,.T.);
#356=EDGE_CURVE('',#282,#256,#157,.T.);
#357=EDGE_CURVE('',#282,#283,#158,.T.);
#358=EDGE_CURVE('',#283,#284,#159,.T.);
#359=EDGE_CURVE('',#284,#280,#160,.T.);
#360=EDGE_CURVE('',#279,#263,#41,.T.);
#361=EDGE_CURVE('',#262,#285,#161,.T.);
#362=EDGE_CURVE('',#249,#285,#162,.T.);
#363=EDGE_CURVE('',#276,#282,#42,.T.);
#364=EDGE_CURVE('',#285,#286,#43,.T.);
#365=EDGE_CURVE('',#286,#250,#163,.T.);
#366=EDGE_CURVE('',#268,#286,#164,.T.);
#367=EDGE_CURVE('',#277,#281,#165,.T.);
#368=EDGE_CURVE('',#283,#273,#166,.T.);
#369=EDGE_CURVE('',#284,#272,#167,.T.);
#370=EDGE_CURVE('',#237,#258,#168,.T.);
#371=ORIENTED_EDGE('',*,*,#287,.F.);
#372=ORIENTED_EDGE('',*,*,#288,.F.);
#373=ORIENTED_EDGE('',*,*,#289,.F.);
#374=ORIENTED_EDGE('',*,*,#290,.F.);
#375=ORIENTED_EDGE('',*,*,#287,.T.);
#376=ORIENTED_EDGE('',*,*,#291,.F.);
#377=ORIENTED_EDGE('',*,*,#292,.T.);
#378=ORIENTED_EDGE('',*,*,#293,.F.);
#379=ORIENTED_EDGE('',*,*,#288,.T.);
#380=ORIENTED_EDGE('',*,*,#293,.T.);
#381=ORIENTED_EDGE('',*,*,#294,.T.);
#382=ORIENTED_EDGE('',*,*,#295,.T.);
#383=ORIENTED_EDGE('',*,*,#296,.F.);
#384=ORIENTED_EDGE('',*,*,#297,.F.);
#385=ORIENTED_EDGE('',*,*,#298,.T.);
#386=ORIENTED_EDGE('',*,*,#299,.F.);
#387=ORIENTED_EDGE('',*,*,#300,.T.);
#388=ORIENTED_EDGE('',*,*,#301,.F.);
#389=ORIENTED_EDGE('',*,*,#302,.T.);
#390=ORIENTED_EDGE('',*,*,#303,.F.);
#391=ORIENTED_EDGE('',*,*,#304,.F.);
#392=ORIENTED_EDGE('',*,*,#305,.T.);
#393=ORIENTED_EDGE('',*,*,#290,.T.);
#394=ORIENTED_EDGE('',*,*,#306,.T.);
#395=ORIENTED_EDGE('',*,*,#307,.F.);
#396=ORIENTED_EDGE('',*,*,#308,.F.);
#397=ORIENTED_EDGE('',*,*,#309,.T.);
#398=ORIENTED_EDGE('',*,*,#310,.F.);
#399=ORIENTED_EDGE('',*,*,#311,.T.);
#400=ORIENTED_EDGE('',*,*,#312,.F.);
#401=ORIENTED_EDGE('',*,*,#313,.T.);
#402=ORIENTED_EDGE('',*,*,#314,.F.);
#403=ORIENTED_EDGE('',*,*,#315,.F.);
#404=ORIENTED_EDGE('',*,*,#316,.F.);
#405=ORIENTED_EDGE('',*,*,#317,.T.);
#406=ORIENTED_EDGE('',*,*,#291,.T.);
#407=ORIENTED_EDGE('',*,*,#289,.T.);
#408=ORIENTED_EDGE('',*,*,#305,.F.);
#409=ORIENTED_EDGE('',*,*,#318,.F.);
#410=ORIENTED_EDGE('',*,*,#319,.F.);
#411=ORIENTED_EDGE('',*,*,#320,.F.);
#412=ORIENTED_EDGE('',*,*,#321,.F.);
#413=ORIENTED_EDGE('',*,*,#322,.F.);
#414=ORIENTED_EDGE('',*,*,#306,.F.);
#415=ORIENTED_EDGE('',*,*,#318,.T.);
#416=ORIENTED_EDGE('',*,*,#304,.T.);
#417=ORIENTED_EDGE('',*,*,#323,.F.);
#418=ORIENTED_EDGE('',*,*,#324,.T.);
#419=ORIENTED_EDGE('',*,*,#320,.T.);
#420=ORIENTED_EDGE('',*,*,#325,.F.);
#421=ORIENTED_EDGE('',*,*,#326,.F.);
#422=ORIENTED_EDGE('',*,*,#327,.F.);
#423=ORIENTED_EDGE('',*,*,#326,.T.);
#424=ORIENTED_EDGE('',*,*,#328,.T.);
#425=ORIENTED_EDGE('',*,*,#329,.T.);
#426=ORIENTED_EDGE('',*,*,#330,.F.);
#427=ORIENTED_EDGE('',*,*,#331,.T.);
#428=ORIENTED_EDGE('',*,*,#332,.T.);
#429=ORIENTED_EDGE('',*,*,#310,.T.);
#430=ORIENTED_EDGE('',*,*,#333,.T.);
#431=ORIENTED_EDGE('',*,*,#332,.F.);
#432=ORIENTED_EDGE('',*,*,#334,.F.);
#433=ORIENTED_EDGE('',*,*,#329,.F.);
#434=ORIENTED_EDGE('',*,*,#335,.F.);
#435=ORIENTED_EDGE('',*,*,#336,.F.);
#436=ORIENTED_EDGE('',*,*,#300,.F.);
#437=ORIENTED_EDGE('',*,*,#337,.F.);
#438=ORIENTED_EDGE('',*,*,#338,.F.);
#439=ORIENTED_EDGE('',*,*,#339,.F.);
#440=ORIENTED_EDGE('',*,*,#340,.F.);
#441=ORIENTED_EDGE('',*,*,#341,.F.);
#442=ORIENTED_EDGE('',*,*,#311,.F.);
#443=ORIENTED_EDGE('',*,*,#342,.T.);
#444=ORIENTED_EDGE('',*,*,#343,.T.);
#445=ORIENTED_EDGE('',*,*,#312,.T.);
#446=ORIENTED_EDGE('',*,*,#341,.T.);
#447=ORIENTED_EDGE('',*,*,#343,.F.);
#448=ORIENTED_EDGE('',*,*,#344,.F.);
#449=ORIENTED_EDGE('',*,*,#345,.F.);
#450=ORIENTED_EDGE('',*,*,#313,.F.);
#451=ORIENTED_EDGE('',*,*,#346,.T.);
#452=ORIENTED_EDGE('',*,*,#337,.T.);
#453=ORIENTED_EDGE('',*,*,#299,.T.);
#454=ORIENTED_EDGE('',*,*,#347,.T.);
#455=ORIENTED_EDGE('',*,*,#348,.T.);
#456=ORIENTED_EDGE('',*,*,#349,.T.);
#457=ORIENTED_EDGE('',*,*,#301,.T.);
#458=ORIENTED_EDGE('',*,*,#336,.T.);
#459=ORIENTED_EDGE('',*,*,#349,.F.);
#460=ORIENTED_EDGE('',*,*,#350,.F.);
#461=ORIENTED_EDGE('',*,*,#351,.F.);
#462=ORIENTED_EDGE('',*,*,#302,.F.);
#463=ORIENTED_EDGE('',*,*,#297,.T.);
#464=ORIENTED_EDGE('',*,*,#352,.T.);
#465=ORIENTED_EDGE('',*,*,#353,.T.);
#466=ORIENTED_EDGE('',*,*,#354,.T.);
#467=ORIENTED_EDGE('',*,*,#352,.F.);
#468=ORIENTED_EDGE('',*,*,#296,.T.);
#469=ORIENTED_EDGE('',*,*,#355,.T.);
#470=ORIENTED_EDGE('',*,*,#315,.T.);
#471=ORIENTED_EDGE('',*,*,#356,.F.);
#472=ORIENTED_EDGE('',*,*,#357,.T.);
#473=ORIENTED_EDGE('',*,*,#358,.T.);
#474=ORIENTED_EDGE('',*,*,#359,.T.);
#475=ORIENTED_EDGE('',*,*,#303,.T.);
#476=ORIENTED_EDGE('',*,*,#351,.T.);
#477=ORIENTED_EDGE('',*,*,#360,.T.);
#478=ORIENTED_EDGE('',*,*,#323,.T.);
#479=ORIENTED_EDGE('',*,*,#322,.T.);
#480=ORIENTED_EDGE('',*,*,#361,.T.);
#481=ORIENTED_EDGE('',*,*,#362,.F.);
#482=ORIENTED_EDGE('',*,*,#307,.T.);
#483=ORIENTED_EDGE('',*,*,#314,.T.);
#484=ORIENTED_EDGE('',*,*,#345,.T.);
#485=ORIENTED_EDGE('',*,*,#363,.T.);
#486=ORIENTED_EDGE('',*,*,#356,.T.);
#487=ORIENTED_EDGE('',*,*,#308,.T.);
#488=ORIENTED_EDGE('',*,*,#362,.T.);
#489=ORIENTED_EDGE('',*,*,#364,.T.);
#490=ORIENTED_EDGE('',*,*,#365,.T.);
#491=ORIENTED_EDGE('',*,*,#333,.F.);
#492=ORIENTED_EDGE('',*,*,#309,.F.);
#493=ORIENTED_EDGE('',*,*,#365,.F.);
#494=ORIENTED_EDGE('',*,*,#366,.F.);
#495=ORIENTED_EDGE('',*,*,#347,.F.);
#496=ORIENTED_EDGE('',*,*,#298,.F.);
#497=ORIENTED_EDGE('',*,*,#354,.F.);
#498=ORIENTED_EDGE('',*,*,#367,.F.);
#499=ORIENTED_EDGE('',*,*,#363,.F.);
#500=ORIENTED_EDGE('',*,*,#344,.T.);
#501=ORIENTED_EDGE('',*,*,#342,.F.);
#502=ORIENTED_EDGE('',*,*,#340,.T.);
#503=ORIENTED_EDGE('',*,*,#368,.F.);
#504=ORIENTED_EDGE('',*,*,#357,.F.);
#505=ORIENTED_EDGE('',*,*,#353,.F.);
#506=ORIENTED_EDGE('',*,*,#359,.F.);
#507=ORIENTED_EDGE('',*,*,#369,.T.);
#508=ORIENTED_EDGE('',*,*,#338,.T.);
#509=ORIENTED_EDGE('',*,*,#346,.F.);
#510=ORIENTED_EDGE('',*,*,#367,.T.);
#511=ORIENTED_EDGE('',*,*,#358,.F.);
#512=ORIENTED_EDGE('',*,*,#368,.T.);
#513=ORIENTED_EDGE('',*,*,#339,.T.);
#514=ORIENTED_EDGE('',*,*,#369,.F.);
#515=ORIENTED_EDGE('',*,*,#321,.T.);
#516=ORIENTED_EDGE('',*,*,#327,.T.);
#517=ORIENTED_EDGE('',*,*,#330,.T.);
#518=ORIENTED_EDGE('',*,*,#334,.T.);
#519=ORIENTED_EDGE('',*,*,#331,.F.);
#520=ORIENTED_EDGE('',*,*,#366,.T.);
#521=ORIENTED_EDGE('',*,*,#364,.F.);
#522=ORIENTED_EDGE('',*,*,#361,.F.);
#523=ORIENTED_EDGE('',*,*,#319,.T.);
#524=ORIENTED_EDGE('',*,*,#324,.F.);
#525=ORIENTED_EDGE('',*,*,#360,.F.);
#526=ORIENTED_EDGE('',*,*,#350,.T.);
#527=ORIENTED_EDGE('',*,*,#348,.F.);
#528=ORIENTED_EDGE('',*,*,#335,.T.);
#529=ORIENTED_EDGE('',*,*,#328,.F.);
#530=ORIENTED_EDGE('',*,*,#325,.T.);
#531=ORIENTED_EDGE('',*,*,#370,.T.);
#532=ORIENTED_EDGE('',*,*,#316,.T.);
#533=ORIENTED_EDGE('',*,*,#355,.F.);
#534=ORIENTED_EDGE('',*,*,#295,.F.);
#535=ORIENTED_EDGE('',*,*,#370,.F.);
#536=ORIENTED_EDGE('',*,*,#294,.F.);
#537=ORIENTED_EDGE('',*,*,#292,.F.);
#538=ORIENTED_EDGE('',*,*,#317,.F.);
#539=PLANE('',#603);
#540=PLANE('',#606);
#541=PLANE('',#612);
#542=PLANE('',#621);
#543=PLANE('',#622);
#544=PLANE('',#623);
#545=PLANE('',#626);
#546=PLANE('',#629);
#547=PLANE('',#634);
#548=PLANE('',#637);
#549=PLANE('',#640);
#550=PLANE('',#645);
#551=PLANE('',#646);
#552=PLANE('',#647);
#553=PLANE('',#648);
#554=PLANE('',#649);
#555=PLANE('',#650);
#556=PLANE('',#651);
#557=PLANE('',#652);
#558=PLANE('',#653);
#559=ADVANCED_FACE('',(#47),#539,.F.);
#560=ADVANCED_FACE('',(#48),#46,.F.);
#561=ADVANCED_FACE('',(#49),#540,.T.);
#562=ADVANCED_FACE('',(#50),#541,.T.);
#563=ADVANCED_FACE('',(#51),#15,.F.);
#564=ADVANCED_FACE('',(#52),#542,.T.);
#565=ADVANCED_FACE('',(#53),#543,.F.);
#566=ADVANCED_FACE('',(#54),#544,.F.);
#567=ADVANCED_FACE('',(#55),#16,.F.);
#568=ADVANCED_FACE('',(#56),#545,.F.);
#569=ADVANCED_FACE('',(#57),#17,.F.);
#570=ADVANCED_FACE('',(#58),#546,.F.);
#571=ADVANCED_FACE('',(#59),#18,.F.);
#572=ADVANCED_FACE('',(#60),#19,.F.);
#573=ADVANCED_FACE('',(#61),#547,.F.);
#574=ADVANCED_FACE('',(#62),#20,.T.);
#575=ADVANCED_FACE('',(#63),#548,.T.);
#576=ADVANCED_FACE('',(#64),#21,.T.);
#577=ADVANCED_FACE('',(#65),#549,.T.);
#578=ADVANCED_FACE('',(#66),#22,.T.);
#579=ADVANCED_FACE('',(#67),#23,.T.);
#580=ADVANCED_FACE('',(#68),#550,.F.);
#581=ADVANCED_FACE('',(#69),#551,.F.);
#582=ADVANCED_FACE('',(#70),#552,.F.);
#583=ADVANCED_FACE('',(#71),#553,.F.);
#584=ADVANCED_FACE('',(#72),#554,.F.);
#585=ADVANCED_FACE('',(#73),#555,.F.);
#586=ADVANCED_FACE('',(#74),#556,.F.);
#587=ADVANCED_FACE('',(#75),#557,.T.);
#588=ADVANCED_FACE('',(#76),#558,.F.);
#589=CLOSED_SHELL('',(#559,#560,#561,#562,#563,#564,#565,#566,#567,#568,
#569,#570,#571,#572,#573,#574,#575,#576,#577,#578,#579,#580,#581,#582,#583,
#584,#585,#586,#587,#588));
#590=DERIVED_UNIT_ELEMENT(#592,1.);
#591=DERIVED_UNIT_ELEMENT(#1005,-3.);
#592=(
MASS_UNIT()
NAMED_UNIT(*)
SI_UNIT(.KILO.,.GRAM.)
);
#593=DERIVED_UNIT((#590,#591));
#594=MEASURE_REPRESENTATION_ITEM('density measure',
POSITIVE_RATIO_MEASURE(7850.),#593);
#595=PROPERTY_DEFINITION_REPRESENTATION(#600,#597);
#596=PROPERTY_DEFINITION_REPRESENTATION(#601,#598);
#597=REPRESENTATION('material name',(#599),#1002);
#598=REPRESENTATION('density',(#594),#1002);
#599=DESCRIPTIVE_REPRESENTATION_ITEM('Steel','Steel');
#600=PROPERTY_DEFINITION('material property','material name',#1012);
#601=PROPERTY_DEFINITION('material property','density of part',#1012);
#602=AXIS2_PLACEMENT_3D('',#820,#654,#655);
#603=AXIS2_PLACEMENT_3D('',#821,#656,#657);
#604=AXIS2_PLACEMENT_3D('',#841,#662,#663);
#605=AXIS2_PLACEMENT_3D('',#844,#665,#666);
#606=AXIS2_PLACEMENT_3D('',#845,#667,#668);
#607=AXIS2_PLACEMENT_3D('',#853,#672,#673);
#608=AXIS2_PLACEMENT_3D('',#857,#675,#676);
#609=AXIS2_PLACEMENT_3D('',#861,#678,#679);
#610=AXIS2_PLACEMENT_3D('',#865,#681,#682);
#611=AXIS2_PLACEMENT_3D('',#868,#684,#685);
#612=AXIS2_PLACEMENT_3D('',#869,#686,#687);
#613=AXIS2_PLACEMENT_3D('',#871,#688,#689);
#614=AXIS2_PLACEMENT_3D('',#875,#691,#692);
#615=AXIS2_PLACEMENT_3D('',#879,#694,#695);
#616=AXIS2_PLACEMENT_3D('',#883,#697,#698);
#617=AXIS2_PLACEMENT_3D('',#887,#700,#701);
#618=AXIS2_PLACEMENT_3D('',#893,#705,#706);
#619=AXIS2_PLACEMENT_3D('',#897,#708,#709);
#620=AXIS2_PLACEMENT_3D('',#901,#711,#712);
#621=AXIS2_PLACEMENT_3D('',#903,#714,#715);
#622=AXIS2_PLACEMENT_3D('',#907,#718,#719);
#623=AXIS2_PLACEMENT_3D('',#913,#723,#724);
#624=AXIS2_PLACEMENT_3D('',#919,#728,#729);
#625=AXIS2_PLACEMENT_3D('',#922,#730,#731);
#626=AXIS2_PLACEMENT_3D('',#925,#734,#735);
#627=AXIS2_PLACEMENT_3D('',#939,#744,#745);
#628=AXIS2_PLACEMENT_3D('',#941,#746,#747);
#629=AXIS2_PLACEMENT_3D('',#943,#749,#750);
#630=AXIS2_PLACEMENT_3D('',#947,#753,#754);
#631=AXIS2_PLACEMENT_3D('',#949,#755,#756);
#632=AXIS2_PLACEMENT_3D('',#951,#758,#759);
#633=AXIS2_PLACEMENT_3D('',#953,#760,#761);
#634=AXIS2_PLACEMENT_3D('',#955,#763,#764);
#635=AXIS2_PLACEMENT_3D('',#959,#767,#768);
#636=AXIS2_PLACEMENT_3D('',#963,#770,#771);
#637=AXIS2_PLACEMENT_3D('',#965,#773,#774);
#638=AXIS2_PLACEMENT_3D('',#974,#780,#781);
#639=AXIS2_PLACEMENT_3D('',#975,#782,#783);
#640=AXIS2_PLACEMENT_3D('',#976,#784,#785);
#641=AXIS2_PLACEMENT_3D('',#980,#788,#789);
#642=AXIS2_PLACEMENT_3D('',#981,#790,#791);
#643=AXIS2_PLACEMENT_3D('',#982,#792,#793);
#644=AXIS2_PLACEMENT_3D('',#984,#794,#795);
#645=AXIS2_PLACEMENT_3D('',#986,#797,#798);
#646=AXIS2_PLACEMENT_3D('',#988,#800,#801);
#647=AXIS2_PLACEMENT_3D('',#990,#803,#804);
#648=AXIS2_PLACEMENT_3D('',#992,#806,#807);
#649=AXIS2_PLACEMENT_3D('',#994,#809,#810);
#650=AXIS2_PLACEMENT_3D('',#995,#811,#812);
#651=AXIS2_PLACEMENT_3D('',#996,#813,#814);
#652=AXIS2_PLACEMENT_3D('',#997,#815,#816);
#653=AXIS2_PLACEMENT_3D('',#999,#818,#819);
#654=DIRECTION('axis',(0.,0.,1.));
#655=DIRECTION('refdir',(1.,0.,0.));
#656=DIRECTION('center_axis',(0.0320857386150218,-0.999485120138128,0.));
#657=DIRECTION('ref_axis',(-0.999485120138128,-0.0320857386150218,0.));
#658=DIRECTION('',(0.,0.,-1.));
#659=DIRECTION('',(-0.999485120138128,-0.0320857386150218,0.));
#660=DIRECTION('',(0.,0.,1.));
#661=DIRECTION('',(0.999485120138128,0.0320857386150218,0.));
#662=DIRECTION('center_axis',(0.,0.,-1.));
#663=DIRECTION('ref_axis',(0.,1.,0.));
#664=DIRECTION('',(0.,0.,1.));
#665=DIRECTION('center_axis',(0.,0.,1.));
#666=DIRECTION('ref_axis',(0.,1.,0.));
#667=DIRECTION('center_axis',(0.,0.,1.));
#668=DIRECTION('ref_axis',(1.,0.,0.));
#669=DIRECTION('',(1.,0.,0.));
#670=DIRECTION('',(0.,1.,0.));
#671=DIRECTION('',(1.,0.,0.));
#672=DIRECTION('center_axis',(0.,0.,-1.));
#673=DIRECTION('ref_axis',(-0.707106781186547,0.707106781186547,0.));
#674=DIRECTION('',(0.,-1.,0.));
#675=DIRECTION('center_axis',(0.,0.,1.));
#676=DIRECTION('ref_axis',(0.707106781186547,-0.707106781186547,0.));
#677=DIRECTION('',(-1.,0.,0.));
#678=DIRECTION('center_axis',(0.,0.,1.));
#679=DIRECTION('ref_axis',(-0.707106781186547,-0.707106781186547,0.));
#680=DIRECTION('',(0.,1.,0.));
#681=DIRECTION('center_axis',(0.,0.,-1.));
#682=DIRECTION('ref_axis',(0.707106781186547,0.707106781186548,0.));
#683=DIRECTION('',(1.,0.,0.));
#684=DIRECTION('center_axis',(0.,0.,-1.));
#685=DIRECTION('ref_axis',(1.,0.,0.));
#686=DIRECTION('center_axis',(0.,0.,-1.));
#687=DIRECTION('ref_axis',(-1.,0.,0.));
#688=DIRECTION('center_axis',(0.,0.,1.));
#689=DIRECTION('ref_axis',(1.,0.,0.));
#690=DIRECTION('',(-1.,0.,0.));
#691=DIRECTION('center_axis',(0.,0.,1.));
#692=DIRECTION('ref_axis',(0.707106781186547,0.707106781186548,0.));
#693=DIRECTION('',(0.,-1.,0.));
#694=DIRECTION('center_axis',(0.,0.,-1.));
#695=DIRECTION('ref_axis',(-0.707106781186547,-0.707106781186547,0.));
#696=DIRECTION('',(1.,0.,0.));
#697=DIRECTION('center_axis',(0.,0.,-1.));
#698=DIRECTION('ref_axis',(0.707106781186547,-0.707106781186547,0.));
#699=DIRECTION('',(0.,1.,0.));
#700=DIRECTION('center_axis',(0.,0.,1.));
#701=DIRECTION('ref_axis',(-0.707106781186547,0.707106781186547,0.));
#702=DIRECTION('',(-1.,0.,0.));
#703=DIRECTION('',(0.,1.,0.));
#704=DIRECTION('',(-1.,0.,0.));
#705=DIRECTION('center_axis',(0.,0.,-1.));
#706=DIRECTION('ref_axis',(1.,0.,0.));
#707=DIRECTION('',(0.,0.,1.));
#708=DIRECTION('center_axis',(0.,0.,1.));
#709=DIRECTION('ref_axis',(1.,0.,0.));
#710=DIRECTION('',(0.,0.,1.));
#711=DIRECTION('center_axis',(0.,0.,-1.));
#712=DIRECTION('ref_axis',(1.,0.,0.));
#713=DIRECTION('',(0.,0.,1.));
#714=DIRECTION('center_axis',(0.,1.,0.));
#715=DIRECTION('ref_axis',(0.,0.,1.));
#716=DIRECTION('',(0.,0.,1.));
#717=DIRECTION('',(-1.,0.,0.));
#718=DIRECTION('center_axis',(0.,-1.,0.));
#719=DIRECTION('ref_axis',(0.,0.,-1.));
#720=DIRECTION('',(-1.,0.,0.));
#721=DIRECTION('',(0.,0.,1.));
#722=DIRECTION('',(1.,0.,0.));
#723=DIRECTION('center_axis',(-1.,0.,0.));
#724=DIRECTION('ref_axis',(0.,0.,-1.));
#725=DIRECTION('',(0.,-1.,0.));
#726=DIRECTION('',(0.,0.,-1.));
#727=DIRECTION('',(0.,-1.,0.));
#728=DIRECTION('center_axis',(0.,0.,-1.));
#729=DIRECTION('ref_axis',(-0.707106781186547,-0.707106781186547,0.));
#730=DIRECTION('center_axis',(0.,0.,1.));
#731=DIRECTION('ref_axis',(-0.707106781186547,-0.707106781186547,0.));
#732=DIRECTION('',(0.,0.,-1.));
#733=DIRECTION('',(0.,0.,1.));
#734=DIRECTION('center_axis',(0.,-1.,0.));
#735=DIRECTION('ref_axis',(0.,0.,-1.));
#736=DIRECTION('',(1.,0.,0.));
#737=DIRECTION('',(-1.,0.,0.));
#738=DIRECTION('',(0.,0.,-1.));
#739=DIRECTION('',(0.,0.,1.));
#740=DIRECTION('',(-1.,0.,0.));
#741=DIRECTION('',(0.,0.,1.));
#742=DIRECTION('',(1.,0.,0.));
#743=DIRECTION('',(0.,0.,1.));
#744=DIRECTION('center_axis',(0.,0.,-1.));
#745=DIRECTION('ref_axis',(0.707106781186547,-0.707106781186547,0.));
#746=DIRECTION('center_axis',(0.,0.,1.));
#747=DIRECTION('ref_axis',(0.707106781186547,-0.707106781186547,0.));
#748=DIRECTION('',(0.,0.,-1.));
#749=DIRECTION('center_axis',(1.,0.,0.));
#750=DIRECTION('ref_axis',(0.,-1.,0.));
#751=DIRECTION('',(0.,-1.,0.));
#752=DIRECTION('',(0.,0.,1.));
#753=DIRECTION('center_axis',(0.,0.,-1.));
#754=DIRECTION('ref_axis',(0.707106781186547,-0.707106781186547,0.));
#755=DIRECTION('center_axis',(0.,0.,-1.));
#756=DIRECTION('ref_axis',(0.707106781186547,-0.707106781186547,0.));
#757=DIRECTION('',(0.,0.,-1.));
#758=DIRECTION('center_axis',(0.,0.,-1.));
#759=DIRECTION('ref_axis',(-0.707106781186547,-0.707106781186547,0.));
#760=DIRECTION('center_axis',(0.,0.,-1.));
#761=DIRECTION('ref_axis',(-0.707106781186547,-0.707106781186547,0.));
#762=DIRECTION('',(0.,0.,1.));
#763=DIRECTION('center_axis',(-1.,0.,0.));
#764=DIRECTION('ref_axis',(0.,1.,0.));
#765=DIRECTION('',(0.,-1.,0.));
#766=DIRECTION('',(0.,0.,-1.));
#767=DIRECTION('center_axis',(0.,0.,1.));
#768=DIRECTION('ref_axis',(-0.707106781186547,0.707106781186547,0.));
#769=DIRECTION('',(0.,0.,-1.));
#770=DIRECTION('center_axis',(0.,0.,1.));
#771=DIRECTION('ref_axis',(-0.707106781186547,0.707106781186547,0.));
#772=DIRECTION('',(0.,0.,1.));
#773=DIRECTION('center_axis',(0.,1.,0.));
#774=DIRECTION('ref_axis',(0.,0.,1.));
#775=DIRECTION('',(0.,0.,-1.));
#776=DIRECTION('',(0.,0.,-1.));
#777=DIRECTION('',(1.,0.,0.));
#778=DIRECTION('',(0.,0.,1.));
#779=DIRECTION('',(-1.,0.,0.));
#780=DIRECTION('center_axis',(0.,0.,-1.));
#781=DIRECTION('ref_axis',(0.707106781186547,0.707106781186548,0.));
#782=DIRECTION('center_axis',(0.,0.,1.));
#783=DIRECTION('ref_axis',(0.707106781186547,0.707106781186548,0.));
#784=DIRECTION('center_axis',(0.,1.,0.));
#785=DIRECTION('ref_axis',(0.,0.,1.));
#786=DIRECTION('',(1.,0.,0.));
#787=DIRECTION('',(0.,0.,1.));
#788=DIRECTION('center_axis',(0.,0.,1.));
#789=DIRECTION('ref_axis',(-0.707106781186547,0.707106781186547,0.));
#790=DIRECTION('center_axis',(0.,0.,-1.));
#791=DIRECTION('ref_axis',(-0.707106781186547,0.707106781186547,0.));
#792=DIRECTION('center_axis',(0.,0.,-1.));
#793=DIRECTION('ref_axis',(0.707106781186547,0.707106781186548,0.));
#794=DIRECTION('center_axis',(0.,0.,-1.));
#795=DIRECTION('ref_axis',(0.707106781186547,0.707106781186548,0.));
#796=DIRECTION('',(0.,0.,-1.));
#797=DIRECTION('center_axis',(-1.,0.,0.));
#798=DIRECTION('ref_axis',(0.,1.,0.));
#799=DIRECTION('',(0.,1.,0.));
#800=DIRECTION('center_axis',(1.,0.,0.));
#801=DIRECTION('ref_axis',(0.,-1.,0.));
#802=DIRECTION('',(0.,1.,0.));
#803=DIRECTION('center_axis',(0.,0.,-1.));
#804=DIRECTION('ref_axis',(1.,0.,0.));
#805=DIRECTION('',(0.,-1.,0.));
#806=DIRECTION('center_axis',(0.,0.,1.));
#807=DIRECTION('ref_axis',(-1.,0.,0.));
#808=DIRECTION('',(0.,-1.,0.));
#809=DIRECTION('center_axis',(1.,0.,0.));
#810=DIRECTION('ref_axis',(0.,0.,1.));
#811=DIRECTION('center_axis',(0.,0.,-1.));
#812=DIRECTION('ref_axis',(1.,0.,0.));
#813=DIRECTION('center_axis',(0.,0.,1.));
#814=DIRECTION('ref_axis',(-1.,0.,0.));
#815=DIRECTION('center_axis',(1.,0.,0.));
#816=DIRECTION('ref_axis',(0.,0.,-1.));
#817=DIRECTION('',(0.,0.,-1.));
#818=DIRECTION('center_axis',(0.,1.,0.));
#819=DIRECTION('ref_axis',(0.,0.,1.));
#820=CARTESIAN_POINT('',(0.,0.,0.));
#821=CARTESIAN_POINT('Origin',(-2.50928273999605,44.6096431765202,-1.67));
#822=CARTESIAN_POINT('',(-4.70156915215287,44.5392658118426,-1.67));
#823=CARTESIAN_POINT('',(-4.70156915215287,44.5392658118426,-95.01));
#824=CARTESIAN_POINT('',(-4.70156915215287,44.5392658118426,-1.67));
#825=CARTESIAN_POINT('',(-3.07553749274567,44.5914651150161,-1.67));
#826=CARTESIAN_POINT('',(-1.11031304023551,44.6545532759428,-1.67));
#827=CARTESIAN_POINT('',(-3.07553749274567,44.5914651150161,-95.01));
#828=CARTESIAN_POINT('',(-3.07553749274567,44.5914651150161,0.));
#829=CARTESIAN_POINT('',(29.5281123596933,45.6381162016441,-95.01));
#830=CARTESIAN_POINT('Ctrl Pts',(1.67,1.67,-1.67));
#831=CARTESIAN_POINT('Ctrl Pts',(-10.3541248469613,1.67,-1.67));
#832=CARTESIAN_POINT('Ctrl Pts',(-12.9705713365023,19.2740057580947,-1.67));
#833=CARTESIAN_POINT('Ctrl Pts',(-15.5870178260434,36.8780115161893,-1.67));
#834=CARTESIAN_POINT('Ctrl Pts',(-4.70156915215286,44.5392658118426,-1.67));
#835=CARTESIAN_POINT('Ctrl Pts',(1.67,1.67,-95.01));
#836=CARTESIAN_POINT('Ctrl Pts',(-10.3541248469613,1.67,-95.01));
#837=CARTESIAN_POINT('Ctrl Pts',(-12.9705713365023,19.2740057580947,-95.01));
#838=CARTESIAN_POINT('Ctrl Pts',(-15.5870178260434,36.8780115161893,-95.01));
#839=CARTESIAN_POINT('Ctrl Pts',(-4.70156915215286,44.5392658118426,-95.01));
#840=CARTESIAN_POINT('',(1.67,1.67,-95.01));
#841=CARTESIAN_POINT('Origin',(1.67,24.17,-95.01));
#842=CARTESIAN_POINT('',(1.67,1.67,-1.67));
#843=CARTESIAN_POINT('',(1.67,1.67,-25.005));
#844=CARTESIAN_POINT('Origin',(1.67,24.17,-1.67));
#845=CARTESIAN_POINT('Origin',(1.67,1.67,-1.67));
#846=CARTESIAN_POINT('',(63.01,1.67,-1.67));
#847=CARTESIAN_POINT('',(47.675,1.67,-1.67));
#848=CARTESIAN_POINT('',(63.01,46.67,-1.67));
#849=CARTESIAN_POINT('',(63.01,1.67,-1.67));
#850=CARTESIAN_POINT('',(47.51,46.67,-1.67));
#851=CARTESIAN_POINT('',(47.675,46.67,-1.67));
#852=CARTESIAN_POINT('',(41.01,40.17,-1.67));
#853=CARTESIAN_POINT('Origin',(47.51,40.17,-1.67));
#854=CARTESIAN_POINT('',(41.01,8.34,-1.67));
#855=CARTESIAN_POINT('',(41.01,24.17,-1.67));
#856=CARTESIAN_POINT('',(36.01,3.34,-1.67));
#857=CARTESIAN_POINT('Origin',(36.01,8.34,-1.67));
#858=CARTESIAN_POINT('',(29.889999999525,3.34,-1.67));
#859=CARTESIAN_POINT('',(21.34,3.34,-1.67));
#860=CARTESIAN_POINT('',(24.889999999525,8.34,-1.67));
#861=CARTESIAN_POINT('Origin',(29.889999999525,8.34,-1.67));
#862=CARTESIAN_POINT('',(24.889999999525,40.17,-1.67));
#863=CARTESIAN_POINT('',(24.889999999525,2.505,-1.67));
#864=CARTESIAN_POINT('',(18.389999999525,46.67,-1.67));
#865=CARTESIAN_POINT('Origin',(18.389999999525,40.17,-1.67));
#866=CARTESIAN_POINT('',(2.97692748413721,46.67,-1.67));
#867=CARTESIAN_POINT('',(47.675,46.67,-1.67));
#868=CARTESIAN_POINT('Origin',(-0.0100000004749722,45.5162807093282,-1.67));
#869=CARTESIAN_POINT('Origin',(63.01,1.67,-95.01));
#870=CARTESIAN_POINT('',(2.97692748413721,46.67,-95.01));
#871=CARTESIAN_POINT('Origin',(-0.0100000004749722,45.5162807093282,-95.01));
#872=CARTESIAN_POINT('',(18.389999999525,46.67,-95.01));
#873=CARTESIAN_POINT('',(17.005,46.67,-95.01));
#874=CARTESIAN_POINT('',(24.889999999525,40.17,-95.01));
#875=CARTESIAN_POINT('Origin',(18.389999999525,40.17,-95.01));
#876=CARTESIAN_POINT('',(24.889999999525,8.34,-95.01));
#877=CARTESIAN_POINT('',(24.889999999525,2.505,-95.01));
#878=CARTESIAN_POINT('',(29.889999999525,3.34,-95.01));
#879=CARTESIAN_POINT('Origin',(29.889999999525,8.34,-95.01));
#880=CARTESIAN_POINT('',(36.01,3.34,-95.01));
#881=CARTESIAN_POINT('',(52.01,3.34,-95.01));
#882=CARTESIAN_POINT('',(41.01,8.34,-95.01));
#883=CARTESIAN_POINT('Origin',(36.01,8.34,-95.01));
#884=CARTESIAN_POINT('',(41.01,40.17,-95.01));
#885=CARTESIAN_POINT('',(41.01,24.17,-95.01));
#886=CARTESIAN_POINT('',(47.51,46.67,-95.01));
#887=CARTESIAN_POINT('Origin',(47.51,40.17,-95.01));
#888=CARTESIAN_POINT('',(63.01,46.67,-95.01));
#889=CARTESIAN_POINT('',(17.005,46.67,-95.01));
#890=CARTESIAN_POINT('',(63.01,1.67,-95.01));
#891=CARTESIAN_POINT('',(63.01,1.67,-95.01));
#892=CARTESIAN_POINT('',(17.005,1.67,-95.01));
#893=CARTESIAN_POINT('Origin',(-0.0100000004749722,45.5162807093282,0.));
#894=CARTESIAN_POINT('',(2.97692748413721,46.67,-3.34000000000001));
#895=CARTESIAN_POINT('',(2.97692748413721,46.67,0.));
#896=CARTESIAN_POINT('',(3.07814069596666,44.67,-3.34000000000001));
#897=CARTESIAN_POINT('Origin',(-0.0100000004749722,45.5162807093282,-3.34000000000001));
#898=CARTESIAN_POINT('',(3.07814069596666,44.67,-93.34));
#899=CARTESIAN_POINT('',(3.07814069596666,44.67,0.));
#900=CARTESIAN_POINT('',(2.97692748413721,46.67,-93.34));
#901=CARTESIAN_POINT('Origin',(-0.0100000004749722,45.5162807093282,-93.34));
#902=CARTESIAN_POINT('',(2.97692748413721,46.67,0.));
#903=CARTESIAN_POINT('Origin',(32.34,46.67,-48.34));
#904=CARTESIAN_POINT('',(18.389999999525,46.67,-3.34000000000001));
#905=CARTESIAN_POINT('',(18.389999999525,46.67,-25.005));
#906=CARTESIAN_POINT('',(17.84,46.67,-3.34000000000001));
#907=CARTESIAN_POINT('Origin',(3.11499999976252,44.67,-48.34));
#908=CARTESIAN_POINT('',(3.34,44.67,-3.34000000000001));
#909=CARTESIAN_POINT('',(2.88999999952503,44.67,-3.34000000000001));
#910=CARTESIAN_POINT('',(3.34,44.67,-93.34));
#911=CARTESIAN_POINT('',(3.34,44.67,-25.84));
#912=CARTESIAN_POINT('',(2.88999999952503,44.67,-93.34));
#913=CARTESIAN_POINT('Origin',(3.34,46.67,-3.34000000000001));
#914=CARTESIAN_POINT('',(3.34,3.34,-3.34000000000001));
#915=CARTESIAN_POINT('',(3.34,46.67,-3.34000000000001));
#916=CARTESIAN_POINT('',(3.34,3.34,-93.34));
#917=CARTESIAN_POINT('',(3.34,3.34,-3.34000000000001));
#918=CARTESIAN_POINT('',(3.34,46.67,-93.34));
#919=CARTESIAN_POINT('Origin',(29.889999999525,8.34,-25.005));
#920=CARTESIAN_POINT('',(24.889999999525,8.34,-93.34));
#921=CARTESIAN_POINT('',(29.889999999525,3.34,-93.34));
#922=CARTESIAN_POINT('Origin',(29.889999999525,8.34,-93.34));
#923=CARTESIAN_POINT('',(29.889999999525,3.34,-25.005));
#924=CARTESIAN_POINT('',(24.889999999525,8.34,-25.005));
#925=CARTESIAN_POINT('Origin',(32.34,3.34,-48.34));
#926=CARTESIAN_POINT('',(3.34,3.34,-93.34));
#927=CARTESIAN_POINT('',(29.889999999525,3.34,-3.34000000000001));
#928=CARTESIAN_POINT('',(61.34,3.34,-3.34000000000001));
#929=CARTESIAN_POINT('',(29.889999999525,3.34,-25.005));
#930=CARTESIAN_POINT('',(36.01,3.34,-3.34000000000001));
#931=CARTESIAN_POINT('',(36.01,3.34,-25.005));
#932=CARTESIAN_POINT('',(61.34,3.34,-3.34000000000001));
#933=CARTESIAN_POINT('',(61.34,3.34,-3.34000000000001));
#934=CARTESIAN_POINT('',(61.34,3.34,-93.34));
#935=CARTESIAN_POINT('',(61.34,3.34,-93.34));
#936=CARTESIAN_POINT('',(36.01,3.34,-93.34));
#937=CARTESIAN_POINT('',(3.34,3.34,-93.34));
#938=CARTESIAN_POINT('',(36.01,3.34,-25.005));
#939=CARTESIAN_POINT('Origin',(36.01,8.34,-25.005));
#940=CARTESIAN_POINT('',(41.01,8.34,-93.34));
#941=CARTESIAN_POINT('Origin',(36.01,8.34,-93.34));
#942=CARTESIAN_POINT('',(41.01,8.34,-25.005));
#943=CARTESIAN_POINT('Origin',(41.01,46.67,-1.67));
#944=CARTESIAN_POINT('',(41.01,40.17,-93.34));
#945=CARTESIAN_POINT('',(41.01,46.67,-93.34));
#946=CARTESIAN_POINT('',(41.01,40.17,-25.005));
#947=CARTESIAN_POINT('Origin',(36.01,8.34,-25.005));
#948=CARTESIAN_POINT('',(41.01,8.34,-3.34000000000001));
#949=CARTESIAN_POINT('Origin',(36.01,8.34,-3.34000000000001));
#950=CARTESIAN_POINT('',(41.01,8.34,-25.005));
#951=CARTESIAN_POINT('Origin',(29.889999999525,8.34,-25.005));
#952=CARTESIAN_POINT('',(24.889999999525,8.34,-3.34000000000001));
#953=CARTESIAN_POINT('Origin',(29.889999999525,8.34,-3.34000000000001));
#954=CARTESIAN_POINT('',(24.889999999525,8.34,-25.005));
#955=CARTESIAN_POINT('Origin',(24.889999999525,3.34,-1.67));
#956=CARTESIAN_POINT('',(24.889999999525,40.17,-3.34000000000001));
#957=CARTESIAN_POINT('',(24.889999999525,25.005,-3.34000000000001));
#958=CARTESIAN_POINT('',(24.889999999525,40.17,-25.005));
#959=CARTESIAN_POINT('Origin',(47.51,40.17,-25.005));
#960=CARTESIAN_POINT('',(47.51,46.67,-3.34000000000001));
#961=CARTESIAN_POINT('',(47.51,46.67,-25.005));
#962=CARTESIAN_POINT('',(41.01,40.17,-3.34000000000001));
#963=CARTESIAN_POINT('Origin',(47.51,40.17,-3.34000000000001));
#964=CARTESIAN_POINT('',(41.01,40.17,-25.005));
#965=CARTESIAN_POINT('Origin',(32.34,46.67,-48.34));
#966=CARTESIAN_POINT('',(63.01,46.67,-71.675));
#967=CARTESIAN_POINT('',(47.51,46.67,-93.34));
#968=CARTESIAN_POINT('',(47.51,46.67,-25.005));
#969=CARTESIAN_POINT('',(61.34,46.67,-93.34));
#970=CARTESIAN_POINT('',(17.84,46.67,-93.34));
#971=CARTESIAN_POINT('',(61.34,46.67,-3.34000000000001));
#972=CARTESIAN_POINT('',(61.34,46.67,-70.84));
#973=CARTESIAN_POINT('',(46.84,46.67,-3.34000000000001));
#974=CARTESIAN_POINT('Origin',(18.389999999525,40.17,-25.005));
#975=CARTESIAN_POINT('Origin',(18.389999999525,40.17,-3.34000000000001));
#976=CARTESIAN_POINT('Origin',(32.34,46.67,-48.34));
#977=CARTESIAN_POINT('',(18.389999999525,46.67,-93.34));
#978=CARTESIAN_POINT('',(17.84,46.67,-93.34));
#979=CARTESIAN_POINT('',(18.389999999525,46.67,-25.005));
#980=CARTESIAN_POINT('Origin',(47.51,40.17,-25.005));
#981=CARTESIAN_POINT('Origin',(47.51,40.17,-93.34));
#982=CARTESIAN_POINT('Origin',(18.389999999525,40.17,-25.005));
#983=CARTESIAN_POINT('',(24.889999999525,40.17,-93.34));
#984=CARTESIAN_POINT('Origin',(18.389999999525,40.17,-93.34));
#985=CARTESIAN_POINT('',(24.889999999525,40.17,-25.005));
#986=CARTESIAN_POINT('Origin',(24.889999999525,3.34,-1.67));
#987=CARTESIAN_POINT('',(24.889999999525,25.005,-93.34));
#988=CARTESIAN_POINT('Origin',(41.01,46.67,-1.67));
#989=CARTESIAN_POINT('',(41.01,46.67,-3.34000000000001));
#990=CARTESIAN_POINT('Origin',(3.34,46.67,-93.34));
#991=CARTESIAN_POINT('',(61.34,46.67,-93.34));
#992=CARTESIAN_POINT('Origin',(61.34,46.67,-3.34000000000001));
#993=CARTESIAN_POINT('',(61.34,46.67,-3.34000000000001));
#994=CARTESIAN_POINT('Origin',(61.34,46.67,-93.34));
#995=CARTESIAN_POINT('Origin',(3.34,46.67,-93.34));
#996=CARTESIAN_POINT('Origin',(61.34,46.67,-3.34000000000001));
#997=CARTESIAN_POINT('Origin',(63.01,1.67,-1.67));
#998=CARTESIAN_POINT('',(63.01,1.67,-71.675));
#999=CARTESIAN_POINT('Origin',(32.34,1.67,-48.34));
#1000=UNCERTAINTY_MEASURE_WITH_UNIT(LENGTH_MEASURE(0.01),#1004,
'DISTANCE_ACCURACY_VALUE',
'Maximum model space distance between geometric entities at asserted c
onnectivities');
#1001=UNCERTAINTY_MEASURE_WITH_UNIT(LENGTH_MEASURE(0.01),#1004,
'DISTANCE_ACCURACY_VALUE',
'Maximum model space distance between geometric entities at asserted c
onnectivities');
#1002=(
GEOMETRIC_REPRESENTATION_CONTEXT(3)
GLOBAL_UNCERTAINTY_ASSIGNED_CONTEXT((#1000))
GLOBAL_UNIT_ASSIGNED_CONTEXT((#1004,#1006,#1007))
REPRESENTATION_CONTEXT('','3D')
);
#1003=(
GEOMETRIC_REPRESENTATION_CONTEXT(3)
GLOBAL_UNCERTAINTY_ASSIGNED_CONTEXT((#1001))
GLOBAL_UNIT_ASSIGNED_CONTEXT((#1004,#1006,#1007))
REPRESENTATION_CONTEXT('','3D')
);
#1004=(
LENGTH_UNIT()
NAMED_UNIT(*)
SI_UNIT(.MILLI.,.METRE.)
);
#1005=(
LENGTH_UNIT()
NAMED_UNIT(*)
SI_UNIT($,.METRE.)
);
#1006=(
NAMED_UNIT(*)
PLANE_ANGLE_UNIT()
SI_UNIT($,.RADIAN.)
);
#1007=(
NAMED_UNIT(*)
SI_UNIT($,.STERADIAN.)
SOLID_ANGLE_UNIT()
);
#1008=SHAPE_DEFINITION_REPRESENTATION(#1009,#1010);
#1009=PRODUCT_DEFINITION_SHAPE('',$,#1012);
#1010=SHAPE_REPRESENTATION('',(#602),#1002);
#1011=PRODUCT_DEFINITION_CONTEXT('part definition',#1016,'design');
#1012=PRODUCT_DEFINITION('Krabi\X2\010D\X0\ka na karty 3',
'Krabi\X2\010D\X0\ka na karty 3 v11',#1013,#1011);
#1013=PRODUCT_DEFINITION_FORMATION('',$,#1018);
#1014=PRODUCT_RELATED_PRODUCT_CATEGORY('Krabi\X2\010D\X0\ka na karty 3
 v11','Krabi\X2\010D\X0\ka na karty 3 v11',(#1018));
#1015=APPLICATION_PROTOCOL_DEFINITION('international standard',
'automotive_design',2009,#1016);
#1016=APPLICATION_CONTEXT(
'Core Data for Automotive Mechanical Design Process');
#1017=PRODUCT_CONTEXT('part definition',#1016,'mechanical');
#1018=PRODUCT('Krabi\X2\010D\X0\ka na karty 3',
'Krabi\X2\010D\X0\ka na karty 3 v11',$,(#1017));
#1019=PRESENTATION_STYLE_ASSIGNMENT((#1020));
#1020=SURFACE_STYLE_USAGE(.BOTH.,#1021);
#1021=SURFACE_SIDE_STYLE('',(#1022));
#1022=SURFACE_STYLE_FILL_AREA(#1023);
#1023=FILL_AREA_STYLE('Steel - Satin',(#1024));
#1024=FILL_AREA_STYLE_COLOUR('Steel - Satin',#1025);
#1025=COLOUR_RGB('Steel - Satin',0.627450980392157,0.627450980392157,0.627450980392157);
ENDSEC;
END-ISO-10303-21;
